G04 Layer_Physical_Order=1*
G04 Layer_Color=255*
%FSLAX25Y25*%
%MOIN*%
G70*
G01*
G75*
%ADD10R,0.12205X0.04724*%
%ADD11R,0.12992X0.09055*%
%ADD12C,0.02000*%
%ADD13C,0.00800*%
%ADD14C,0.05000*%
%ADD15C,0.05905*%
%ADD16R,0.05905X0.05905*%
%ADD17C,0.16000*%
%ADD18C,0.03400*%
D10*
X662000Y494000D02*
D03*
Y486126D02*
D03*
Y478252D02*
D03*
Y470378D02*
D03*
Y462504D02*
D03*
X338000Y551126D02*
D03*
Y559000D02*
D03*
Y566874D02*
D03*
Y574748D02*
D03*
Y582622D02*
D03*
X662000Y584496D02*
D03*
Y576622D02*
D03*
Y568748D02*
D03*
Y560874D02*
D03*
Y553000D02*
D03*
X338000Y461748D02*
D03*
Y469622D02*
D03*
Y477496D02*
D03*
Y485370D02*
D03*
Y493244D02*
D03*
D11*
X681685Y509748D02*
D03*
Y446756D02*
D03*
X318315Y535378D02*
D03*
Y598370D02*
D03*
X681685Y600244D02*
D03*
Y537252D02*
D03*
X318315Y446000D02*
D03*
Y508992D02*
D03*
D12*
X662000Y575622D02*
X670378D01*
X309000Y477000D02*
X310000Y478000D01*
X309000Y318000D02*
Y477000D01*
Y318000D02*
X321000Y306000D01*
X662000Y583496D02*
X673504D01*
X525500Y331000D02*
X535500D01*
X508500Y324000D02*
X515500Y331000D01*
X492500Y324000D02*
X508500D01*
X485500Y331000D02*
X492500Y324000D01*
X465500Y331000D02*
X475500D01*
X310000Y478000D02*
X318378Y469622D01*
X306819Y481181D02*
X310000Y478000D01*
X460500Y306000D02*
X485500Y331000D01*
X321000Y306000D02*
X460500D01*
X322070Y339991D02*
X348060Y314000D01*
X338000Y418000D02*
Y461748D01*
X320770Y400770D02*
X338000Y418000D01*
X320770Y385998D02*
Y400770D01*
Y385998D02*
X322070Y384698D01*
Y339991D02*
Y384698D01*
X348060Y314000D02*
X448500D01*
X465500Y331000D01*
X363000Y624757D02*
Y673757D01*
X323000Y584757D02*
X363000Y624757D01*
X323000Y572000D02*
Y584757D01*
X450000Y677000D02*
X522000D01*
X366243D02*
X450000D01*
X363000Y673757D02*
X366243Y677000D01*
X450000D02*
X457500Y669500D01*
X526067Y680700D02*
X529467Y677300D01*
X360000Y675000D02*
X365700Y680700D01*
X526067D01*
X529467Y677300D02*
X535300D01*
X536000Y678000D01*
X531000Y681000D02*
X636243D01*
X662000Y655243D01*
Y584496D02*
Y655243D01*
X536000Y678000D02*
X635000D01*
X655378Y576622D02*
X662000D01*
X650000Y582000D02*
X655378Y576622D01*
X650000Y582000D02*
Y591000D01*
X658000Y599000D01*
Y655000D01*
X635000Y678000D02*
X658000Y655000D01*
X536000Y678000D02*
X542547Y671453D01*
X317000Y559000D02*
X338000D01*
X313000D02*
X317000D01*
X547500Y654500D02*
Y657496D01*
X542547Y662449D02*
X547500Y657496D01*
X542547Y662449D02*
Y671453D01*
X360000Y626000D02*
Y675000D01*
X317000Y583000D02*
X360000Y626000D01*
X317000Y559000D02*
Y583000D01*
X322000Y551126D02*
X338000D01*
X315126D02*
X322000D01*
X457500Y664500D02*
Y669500D01*
X673504Y583496D02*
X677000Y580000D01*
Y548757D02*
Y580000D01*
X662000Y538000D02*
X674000Y550000D01*
X662000Y508000D02*
Y538000D01*
X650000Y496000D02*
X662000Y508000D01*
X665000Y536757D02*
X677000Y548757D01*
X665000Y497000D02*
Y536757D01*
X674000Y550000D02*
Y572000D01*
X653268Y486126D02*
X662000D01*
X650000Y489394D02*
X653268Y486126D01*
X650000Y489394D02*
Y496000D01*
X670378Y575622D02*
X674000Y572000D01*
X662000Y494000D02*
X665000Y497000D01*
X337748Y462000D02*
X338000Y461748D01*
X325000Y462000D02*
X337748D01*
X320000Y474000D02*
X325000D01*
X309819Y484181D02*
X320000Y474000D01*
X309819Y484181D02*
Y514348D01*
X310000Y514529D01*
Y529841D01*
X309819Y530022D02*
X310000Y529841D01*
X309819Y530022D02*
Y545819D01*
X315126Y551126D01*
X306819Y552819D02*
X313000Y559000D01*
X306819Y481181D02*
Y552819D01*
X318378Y469622D02*
X338000D01*
D13*
X584594Y346647D02*
X587871Y343371D01*
X631024Y340368D02*
Y426783D01*
X625500Y334844D02*
X631024Y340368D01*
Y426783D02*
X635241Y431000D01*
X639641D02*
X641000Y429641D01*
Y335500D02*
Y429641D01*
Y335500D02*
X645500Y331000D01*
X605500Y341000D02*
Y345742D01*
X604594Y346647D02*
X605500Y345742D01*
X324469Y340985D02*
X343254Y322200D01*
X330692Y337308D02*
X344000Y324000D01*
X330692Y337308D02*
Y381308D01*
X371000Y566000D02*
X376000Y571000D01*
X368800Y571254D02*
X375046Y577500D01*
X367000Y572000D02*
X374300Y579300D01*
X368800Y511800D02*
Y571254D01*
X367000Y516000D02*
Y572000D01*
X387500Y323000D02*
X395500Y331000D01*
X384000Y323000D02*
X387500D01*
X383000Y322000D02*
X384000Y323000D01*
X366700Y322200D02*
X375500Y331000D01*
X343254Y322200D02*
X366700D01*
X324469Y340985D02*
Y387530D01*
X352000Y344500D02*
X355500Y341000D01*
X352000Y344500D02*
Y347492D01*
X351147Y348344D02*
X352000Y347492D01*
X351147Y348344D02*
Y352853D01*
X335000Y369000D02*
X351147Y352853D01*
X335000Y369000D02*
Y382000D01*
X332581Y384419D02*
X335000Y382000D01*
X327581Y384419D02*
X332581D01*
X348500Y324000D02*
X355500Y331000D01*
X344000Y324000D02*
X348500D01*
X415500Y341000D02*
X421000Y346500D01*
Y360616D01*
X407808Y373808D02*
X421000Y360616D01*
X338192Y373808D02*
X407808D01*
X314000Y528000D02*
X320000D01*
X333000Y515000D01*
X346000D01*
X646252Y567748D02*
X662000D01*
X645500Y344844D02*
X649853Y349197D01*
X646441Y356215D02*
X649853Y352803D01*
X646441Y356215D02*
Y431000D01*
X645500Y341000D02*
Y344844D01*
X649853Y349197D02*
Y352803D01*
X621147Y349197D02*
X625500Y344844D01*
X621147Y352803D02*
X629224Y360880D01*
Y431000D01*
X625500Y341000D02*
Y344844D01*
X611147Y352803D02*
X623284Y364940D01*
Y431000D01*
X619853Y339197D02*
Y342803D01*
X616009Y346647D02*
X619853Y342803D01*
X613697Y346647D02*
X616009D01*
X603697D02*
X604594D01*
X601147Y352803D02*
X615442Y367097D01*
Y431000D01*
X599853Y339197D02*
Y342803D01*
X596008Y346647D02*
X599853Y342803D01*
X593697Y346647D02*
X596008D01*
X593697Y355353D02*
X601152D01*
X605928Y360129D01*
Y431000D01*
X585500Y341000D02*
X587871Y343371D01*
X583697Y346647D02*
X584594D01*
X581147Y352803D02*
X595000Y366656D01*
Y431000D01*
X625500Y331000D02*
Y334844D01*
X581147Y349197D02*
X583697Y346647D01*
X581147Y349197D02*
Y352803D01*
X591147Y349197D02*
X593697Y346647D01*
X591147Y349197D02*
Y352803D01*
X593697Y355353D01*
X601147Y349197D02*
X603697Y346647D01*
X601147Y349197D02*
Y352803D01*
X611147Y349197D02*
X613697Y346647D01*
X611147Y349197D02*
Y352803D01*
X621147Y349197D02*
Y352803D01*
X611147Y336647D02*
X617303D01*
X605500Y331000D02*
X611147Y336647D01*
X617303D02*
X619853Y339197D01*
X591147Y336647D02*
X597303D01*
X585500Y331000D02*
X591147Y336647D01*
X597303D02*
X599853Y339197D01*
X376568Y579022D02*
X543113D01*
X376290Y579300D02*
X376568Y579022D01*
X374300Y579300D02*
X376290D01*
X375822Y577222D02*
X543859D01*
X375544Y577500D02*
X375822Y577222D01*
X375046Y577500D02*
X375544D01*
X543113Y579022D02*
X577500Y613409D01*
X543859Y577222D02*
X582000Y615363D01*
X655000Y552000D02*
X662000D01*
X650742Y559874D02*
X662000D01*
X443000Y600000D02*
Y660000D01*
X433000Y590000D02*
X443000Y600000D01*
Y660000D02*
X447500Y664500D01*
X497000Y619000D02*
X563000D01*
X467500Y648500D02*
X497000Y619000D01*
X467500Y648500D02*
Y654500D01*
X596000Y618000D02*
X646252Y567748D01*
X596000Y618000D02*
Y619000D01*
X625000Y593000D02*
X629000D01*
X603000Y615000D02*
X625000Y593000D01*
X603000Y615000D02*
Y649000D01*
X586000Y611000D02*
X593454D01*
X661378Y471000D02*
X662000Y470378D01*
X658808Y471000D02*
X661378D01*
X637200Y492608D02*
X658808Y471000D01*
X597500Y654500D02*
X603000Y649000D01*
X634000Y485000D02*
Y554000D01*
Y485000D02*
X656496Y462504D01*
X662000D01*
X597500Y664500D02*
X635000Y627000D01*
Y590000D02*
Y627000D01*
X634000Y562000D02*
X637200Y558800D01*
Y492608D02*
Y558800D01*
X463000Y660000D02*
X467500Y664500D01*
X463000Y650000D02*
Y660000D01*
Y650000D02*
X503000Y610000D01*
X560000D01*
X597900Y612716D02*
X650742Y559874D01*
X597900Y612716D02*
Y613030D01*
X595030Y615900D02*
X597900Y613030D01*
X594716Y615900D02*
X595030D01*
X592900Y617716D02*
X594716Y615900D01*
X587500Y619500D02*
X655000Y552000D01*
X593454Y611000D02*
X639000Y565454D01*
Y497000D02*
Y565454D01*
Y497000D02*
X657748Y478252D01*
X662000D01*
X592900Y617716D02*
Y620284D01*
X593000Y620384D01*
Y659000D01*
X587500Y619500D02*
Y654500D01*
Y664500D02*
X593000Y659000D01*
X542368Y580822D02*
X571853Y610307D01*
X541622Y582622D02*
X567500Y608500D01*
Y654500D01*
X382000Y590000D02*
X433000D01*
X371000Y506000D02*
Y566000D01*
X342496Y477496D02*
X371000Y506000D01*
X338000Y477496D02*
X342496D01*
X342370Y485370D02*
X368800Y511800D01*
X338000Y485370D02*
X342370D01*
X577500Y664500D02*
X582000Y660000D01*
Y615363D02*
Y660000D01*
X372809Y582900D02*
X377781D01*
X378059Y582622D01*
X372531D02*
X372809Y582900D01*
X373554Y581100D02*
X377035D01*
X377313Y580822D01*
X373276D02*
X373554Y581100D01*
X378059Y582622D02*
X541622D01*
X368308D02*
X372531D01*
X377313Y580822D02*
X542368D01*
X367562D02*
X373276D01*
X577500Y613409D02*
Y654500D01*
X344244Y493244D02*
X367000Y516000D01*
X338000Y493244D02*
X344244D01*
X447500Y601500D02*
Y654500D01*
X432000Y586000D02*
X447500Y601500D01*
X375000Y586000D02*
X432000D01*
X338278Y582900D02*
X368030D01*
X338000Y582622D02*
X338278Y582900D01*
X368030D02*
X368308Y582622D01*
X367284Y581100D02*
X367562Y580822D01*
X364716Y581100D02*
X367284D01*
X362900Y579284D02*
X364716Y581100D01*
X362900Y578522D02*
Y579284D01*
X359126Y574748D02*
X362900Y578522D01*
X354874Y566874D02*
X366000Y578000D01*
X338000Y566874D02*
X354874D01*
X567500Y664500D02*
X571853Y660147D01*
Y610307D02*
Y660147D01*
X338000Y574748D02*
X359126D01*
D14*
X435500Y351000D02*
Y375500D01*
X416000Y395000D02*
X435500Y375500D01*
X416000Y395000D02*
Y558000D01*
X575500Y351000D02*
Y444500D01*
X556000Y464000D02*
X575500Y444500D01*
X556000Y464000D02*
Y558000D01*
X565500Y351000D02*
Y438500D01*
X546000Y458000D02*
X565500Y438500D01*
X546000Y458000D02*
Y558000D01*
X555500Y351000D02*
Y431500D01*
X536000Y451000D02*
X555500Y431500D01*
X536000Y451000D02*
Y558000D01*
X545500Y351000D02*
Y426500D01*
X526000Y446000D02*
X545500Y426500D01*
X526000Y446000D02*
Y558000D01*
X535500Y351000D02*
Y420500D01*
X516000Y440000D02*
X535500Y420500D01*
X516000Y440000D02*
Y558000D01*
X525500Y351000D02*
Y416500D01*
X506000Y436000D02*
X525500Y416500D01*
X506000Y436000D02*
Y558000D01*
X515500Y351000D02*
Y412500D01*
X496000Y432000D02*
X515500Y412500D01*
X496000Y432000D02*
Y558000D01*
X505500Y351000D02*
Y407500D01*
X486000Y427000D02*
X505500Y407500D01*
X486000Y427000D02*
Y558000D01*
X495500Y351000D02*
Y402500D01*
X476000Y422000D02*
X495500Y402500D01*
X476000Y422000D02*
Y558000D01*
X485500Y351000D02*
Y398500D01*
X466000Y418000D02*
X485500Y398500D01*
X466000Y418000D02*
Y558000D01*
X556000D02*
Y568000D01*
X546000Y558000D02*
Y568000D01*
X536000Y558000D02*
Y568000D01*
X526000Y558000D02*
Y568000D01*
X516000Y558000D02*
Y568000D01*
X506000Y558000D02*
Y568000D01*
X496000Y558000D02*
Y568000D01*
X486000Y558000D02*
Y568000D01*
X476000Y558000D02*
Y568000D01*
X466000Y558000D02*
Y568000D01*
X456000Y558000D02*
Y568000D01*
Y414000D02*
Y558000D01*
X475500Y351000D02*
Y394500D01*
X456000Y414000D02*
X475500Y394500D01*
X446000Y558000D02*
Y568000D01*
Y408000D02*
Y558000D01*
X465500Y351000D02*
Y388500D01*
X446000Y408000D02*
X465500Y388500D01*
X436000Y558000D02*
Y568000D01*
Y406000D02*
Y558000D01*
X455500Y351000D02*
Y386500D01*
X436000Y406000D02*
X455500Y386500D01*
X426000Y558000D02*
Y568000D01*
Y401000D02*
Y558000D01*
X445500Y351000D02*
Y381500D01*
X426000Y401000D02*
X445500Y381500D01*
X416000Y558000D02*
Y568000D01*
X406000Y558000D02*
Y568000D01*
Y392000D02*
Y558000D01*
X425500Y351000D02*
Y372500D01*
X406000Y392000D02*
X425500Y372500D01*
D15*
X597500Y664500D02*
D03*
Y654500D02*
D03*
X587500Y664500D02*
D03*
Y654500D02*
D03*
X577500Y664500D02*
D03*
Y654500D02*
D03*
X567500Y664500D02*
D03*
Y654500D02*
D03*
X557500Y664500D02*
D03*
Y654500D02*
D03*
X547500Y664500D02*
D03*
Y654500D02*
D03*
X537500Y664500D02*
D03*
Y654500D02*
D03*
X527500Y664500D02*
D03*
Y654500D02*
D03*
X517500Y664500D02*
D03*
Y654500D02*
D03*
X507500Y664500D02*
D03*
Y654500D02*
D03*
X497500Y664500D02*
D03*
Y654500D02*
D03*
X487500Y664500D02*
D03*
Y654500D02*
D03*
X477500Y664500D02*
D03*
Y654500D02*
D03*
X467500Y664500D02*
D03*
Y654500D02*
D03*
X457500Y664500D02*
D03*
Y654500D02*
D03*
X447500Y664500D02*
D03*
Y654500D02*
D03*
X437500Y664500D02*
D03*
Y654500D02*
D03*
X427500Y664500D02*
D03*
Y654500D02*
D03*
X417500Y664500D02*
D03*
Y654500D02*
D03*
X407500Y664500D02*
D03*
X596000Y568000D02*
D03*
Y558000D02*
D03*
X586000Y568000D02*
D03*
Y558000D02*
D03*
X576000Y568000D02*
D03*
Y558000D02*
D03*
X566000Y568000D02*
D03*
Y558000D02*
D03*
X556000Y568000D02*
D03*
Y558000D02*
D03*
X546000Y568000D02*
D03*
Y558000D02*
D03*
X536000Y568000D02*
D03*
Y558000D02*
D03*
X526000Y568000D02*
D03*
Y558000D02*
D03*
X516000Y568000D02*
D03*
Y558000D02*
D03*
X506000Y568000D02*
D03*
Y558000D02*
D03*
X496000Y568000D02*
D03*
Y558000D02*
D03*
X486000Y568000D02*
D03*
Y558000D02*
D03*
X476000Y568000D02*
D03*
Y558000D02*
D03*
X466000Y568000D02*
D03*
Y558000D02*
D03*
X456000Y568000D02*
D03*
Y558000D02*
D03*
X446000Y568000D02*
D03*
Y558000D02*
D03*
X436000Y568000D02*
D03*
Y558000D02*
D03*
X426000Y568000D02*
D03*
Y558000D02*
D03*
X416000Y568000D02*
D03*
Y558000D02*
D03*
X406000Y568000D02*
D03*
X465500Y351000D02*
D03*
Y341000D02*
D03*
X545500Y351000D02*
D03*
X555500D02*
D03*
X565500D02*
D03*
X575500D02*
D03*
X585500D02*
D03*
X595500D02*
D03*
X605500D02*
D03*
X615500D02*
D03*
X625500D02*
D03*
X635500D02*
D03*
X645500D02*
D03*
X655500D02*
D03*
X535500D02*
D03*
X525500D02*
D03*
X515500D02*
D03*
X505500D02*
D03*
X495500D02*
D03*
X485500D02*
D03*
X475500D02*
D03*
X455500D02*
D03*
X445500D02*
D03*
X435500D02*
D03*
X425500D02*
D03*
X415500D02*
D03*
X405500D02*
D03*
X395500D02*
D03*
X385500D02*
D03*
X375500D02*
D03*
X365500D02*
D03*
X355500D02*
D03*
X345500D02*
D03*
Y341000D02*
D03*
X355500Y331000D02*
D03*
Y341000D02*
D03*
X365500Y331000D02*
D03*
Y341000D02*
D03*
X375500Y331000D02*
D03*
Y341000D02*
D03*
X385500Y331000D02*
D03*
Y341000D02*
D03*
X395500Y331000D02*
D03*
Y341000D02*
D03*
X405500Y331000D02*
D03*
Y341000D02*
D03*
X415500Y331000D02*
D03*
Y341000D02*
D03*
X425500Y331000D02*
D03*
Y341000D02*
D03*
X435500Y331000D02*
D03*
Y341000D02*
D03*
X445500Y331000D02*
D03*
Y341000D02*
D03*
X455500Y331000D02*
D03*
Y341000D02*
D03*
X465500Y331000D02*
D03*
X475500D02*
D03*
Y341000D02*
D03*
X485500Y331000D02*
D03*
Y341000D02*
D03*
X495500Y331000D02*
D03*
Y341000D02*
D03*
X505500Y331000D02*
D03*
Y341000D02*
D03*
X515500Y331000D02*
D03*
Y341000D02*
D03*
X525500Y331000D02*
D03*
Y341000D02*
D03*
X535500Y331000D02*
D03*
Y341000D02*
D03*
X655500D02*
D03*
Y331000D02*
D03*
X645500Y341000D02*
D03*
Y331000D02*
D03*
X635500Y341000D02*
D03*
Y331000D02*
D03*
X625500Y341000D02*
D03*
Y331000D02*
D03*
X615500Y341000D02*
D03*
Y331000D02*
D03*
X605500Y341000D02*
D03*
Y331000D02*
D03*
X595500Y341000D02*
D03*
Y331000D02*
D03*
X585500Y341000D02*
D03*
Y331000D02*
D03*
X575500Y341000D02*
D03*
Y331000D02*
D03*
X565500Y341000D02*
D03*
Y331000D02*
D03*
X555500Y341000D02*
D03*
Y331000D02*
D03*
X545500Y341000D02*
D03*
Y331000D02*
D03*
D16*
X407500Y654500D02*
D03*
X406000Y558000D02*
D03*
X345500Y331000D02*
D03*
D17*
X325500Y321000D02*
D03*
X675500D02*
D03*
D18*
X376000Y571000D02*
D03*
X383000Y322000D02*
D03*
X338192Y373808D02*
D03*
X346000Y515000D02*
D03*
X314000Y528000D02*
D03*
X330692Y381308D02*
D03*
X327581Y384419D02*
D03*
X324469Y387530D02*
D03*
X646441Y431000D02*
D03*
X639641D02*
D03*
X635241D02*
D03*
X629224D02*
D03*
X595000D02*
D03*
X605928D02*
D03*
X615442D02*
D03*
X623284D02*
D03*
X522000Y677000D02*
D03*
X531000Y681000D02*
D03*
X323000Y572000D02*
D03*
X322000Y551126D02*
D03*
X325000Y462000D02*
D03*
Y474000D02*
D03*
X586000Y611000D02*
D03*
X629000Y593000D02*
D03*
X634000Y554000D02*
D03*
X635000Y590000D02*
D03*
X634000Y562000D02*
D03*
X560000Y610000D02*
D03*
X563000Y619000D02*
D03*
X596000D02*
D03*
X382000Y590000D02*
D03*
X375000Y586000D02*
D03*
X366000Y578000D02*
D03*
M02*
