G04 Layer_Color=8388736*
%FSLAX25Y25*%
%MOIN*%
G70*
G01*
G75*
%ADD19C,0.00050*%
%ADD26R,0.10642X0.14579*%
%ADD27R,0.05524X0.08500*%
%ADD28R,0.09855X0.13792*%
%ADD29R,0.05524X0.13005*%
%ADD30C,0.06706*%
%ADD31R,0.06706X0.06706*%
%ADD32O,0.08800X0.07800*%
%ADD33C,0.04200*%
%ADD34C,0.05800*%
D19*
X696850Y686850D02*
G03*
X686850Y696850I-10000J0D01*
G01*
Y303150D02*
G03*
X696850Y313150I0J10000D01*
G01*
X303150D02*
G03*
X313150Y303150I10000J0D01*
G01*
Y696850D02*
G03*
X303150Y686850I0J-10000D01*
G01*
X329646Y676850D02*
G03*
X329646Y676850I-6496J0D01*
G01*
X683347Y323150D02*
G03*
X683347Y323150I-6496J0D01*
G01*
X329646D02*
G03*
X329646Y323150I-6496J0D01*
G01*
X683347Y676850D02*
G03*
X683347Y676850I-6496J0D01*
G01*
X313150Y303150D02*
X686850D01*
X303150Y313150D02*
Y686850D01*
X313150Y696850D02*
X686850D01*
D26*
X545000Y342295D02*
D03*
Y316705D02*
D03*
X502000Y342295D02*
D03*
Y316705D02*
D03*
D27*
X613894Y339347D02*
D03*
X606020D02*
D03*
X598146D02*
D03*
X590272D02*
D03*
D28*
X631500Y319500D02*
D03*
X572287D02*
D03*
X527000Y684500D02*
D03*
X629362D02*
D03*
X467244Y314815D02*
D03*
X364882D02*
D03*
X371008Y684185D02*
D03*
X473370D02*
D03*
D29*
X542748Y664815D02*
D03*
X550622D02*
D03*
X558496D02*
D03*
X566370D02*
D03*
X574244D02*
D03*
X582118D02*
D03*
X589992D02*
D03*
X597866D02*
D03*
X605740D02*
D03*
X613614D02*
D03*
X451496Y334500D02*
D03*
X443622D02*
D03*
X435748D02*
D03*
X427874D02*
D03*
X420000D02*
D03*
X412126D02*
D03*
X404252D02*
D03*
X396378D02*
D03*
X388504D02*
D03*
X380630D02*
D03*
X386756Y664500D02*
D03*
X394630D02*
D03*
X402504D02*
D03*
X410378D02*
D03*
X418252D02*
D03*
X426126D02*
D03*
X434000D02*
D03*
X441874D02*
D03*
X449748D02*
D03*
X457622D02*
D03*
D30*
X688500Y592500D02*
D03*
X678500D02*
D03*
X688500Y582500D02*
D03*
X678500D02*
D03*
X688500Y572500D02*
D03*
X678500D02*
D03*
X688500Y562500D02*
D03*
X678500D02*
D03*
X688500Y552500D02*
D03*
X678500D02*
D03*
X688500Y542500D02*
D03*
X678500D02*
D03*
X688500Y532500D02*
D03*
X678500D02*
D03*
X688500Y522500D02*
D03*
X678500D02*
D03*
X688500Y512500D02*
D03*
X678500D02*
D03*
X688500Y502500D02*
D03*
X678500D02*
D03*
X688500Y492500D02*
D03*
X678500D02*
D03*
X688500Y482500D02*
D03*
X678500D02*
D03*
X688500Y472500D02*
D03*
X678500D02*
D03*
X688500Y462500D02*
D03*
X678500D02*
D03*
X688500Y452500D02*
D03*
X678500D02*
D03*
X688500Y442500D02*
D03*
X678500D02*
D03*
X688500Y432500D02*
D03*
X678500D02*
D03*
X688500Y422500D02*
D03*
X678500D02*
D03*
X688500Y412500D02*
D03*
X678500D02*
D03*
X688500Y402500D02*
D03*
X326500Y409000D02*
D03*
X316500D02*
D03*
X326500Y419000D02*
D03*
X316500D02*
D03*
X326500Y429000D02*
D03*
X316500D02*
D03*
X326500Y439000D02*
D03*
X316500D02*
D03*
X326500Y449000D02*
D03*
X316500D02*
D03*
X326500Y459000D02*
D03*
X316500D02*
D03*
X326500Y469000D02*
D03*
X316500D02*
D03*
X326500Y479000D02*
D03*
X316500D02*
D03*
X326500Y489000D02*
D03*
X316500D02*
D03*
X326500Y499000D02*
D03*
X316500D02*
D03*
X326500Y509000D02*
D03*
X316500D02*
D03*
X326500Y519000D02*
D03*
X316500D02*
D03*
X326500Y529000D02*
D03*
X316500D02*
D03*
X326500Y539000D02*
D03*
X316500D02*
D03*
X326500Y549000D02*
D03*
X316500D02*
D03*
X326500Y559000D02*
D03*
X316500D02*
D03*
X326500Y569000D02*
D03*
X316500D02*
D03*
X326500Y579000D02*
D03*
X316500D02*
D03*
X326500Y589000D02*
D03*
X316500D02*
D03*
X326500Y599000D02*
D03*
D31*
X678500Y402500D02*
D03*
X316500Y599000D02*
D03*
D32*
X588500Y414500D02*
D03*
Y404500D02*
D03*
Y394500D02*
D03*
Y384500D02*
D03*
Y374500D02*
D03*
X538500D02*
D03*
Y384500D02*
D03*
Y394500D02*
D03*
Y404500D02*
D03*
Y414500D02*
D03*
X459000Y615500D02*
D03*
Y605500D02*
D03*
Y595500D02*
D03*
Y585500D02*
D03*
Y575500D02*
D03*
X409000D02*
D03*
Y585500D02*
D03*
Y595500D02*
D03*
Y605500D02*
D03*
Y615500D02*
D03*
X459000Y548500D02*
D03*
Y538500D02*
D03*
Y528500D02*
D03*
Y518500D02*
D03*
Y508500D02*
D03*
X409000D02*
D03*
Y518500D02*
D03*
Y528500D02*
D03*
Y538500D02*
D03*
Y548500D02*
D03*
X459000Y479000D02*
D03*
Y469000D02*
D03*
Y459000D02*
D03*
Y449000D02*
D03*
Y439000D02*
D03*
X409000D02*
D03*
Y449000D02*
D03*
Y459000D02*
D03*
Y469000D02*
D03*
Y479000D02*
D03*
X459000Y414500D02*
D03*
Y404500D02*
D03*
Y394500D02*
D03*
Y384500D02*
D03*
Y374500D02*
D03*
X409000D02*
D03*
Y384500D02*
D03*
Y394500D02*
D03*
Y404500D02*
D03*
Y414500D02*
D03*
X588500Y615500D02*
D03*
Y605500D02*
D03*
Y595500D02*
D03*
Y585500D02*
D03*
Y575500D02*
D03*
X538500D02*
D03*
Y585500D02*
D03*
Y595500D02*
D03*
Y605500D02*
D03*
Y615500D02*
D03*
X588500Y548500D02*
D03*
Y538500D02*
D03*
Y528500D02*
D03*
Y518500D02*
D03*
Y508500D02*
D03*
X538500D02*
D03*
Y518500D02*
D03*
Y528500D02*
D03*
Y538500D02*
D03*
Y548500D02*
D03*
X588500Y479000D02*
D03*
Y469000D02*
D03*
Y459000D02*
D03*
Y449000D02*
D03*
Y439000D02*
D03*
X538500D02*
D03*
Y449000D02*
D03*
Y459000D02*
D03*
Y469000D02*
D03*
Y479000D02*
D03*
D33*
X558500Y660000D02*
D03*
X566500Y661000D02*
D03*
X574500Y662500D02*
D03*
X582000Y661000D02*
D03*
X598000Y664000D02*
D03*
X573000Y675000D02*
D03*
X589500Y667000D02*
D03*
X605000Y668000D02*
D03*
X391000Y466500D02*
D03*
X368000Y475000D02*
D03*
X387000Y463500D02*
D03*
X372500Y474000D02*
D03*
X365500Y471000D02*
D03*
X392500Y449500D02*
D03*
X371000Y468500D02*
D03*
X390000Y445500D02*
D03*
Y439500D02*
D03*
X365500Y464000D02*
D03*
X388500Y434500D02*
D03*
X371000Y463000D02*
D03*
X371500Y459000D02*
D03*
X387500Y428000D02*
D03*
X383000Y427000D02*
D03*
X365500Y457000D02*
D03*
D34*
X443000Y534000D02*
D03*
X370000Y438500D02*
D03*
X367000Y450500D02*
D03*
X365500Y443000D02*
D03*
X346000Y450500D02*
D03*
X342500Y485500D02*
D03*
X365500Y479500D02*
D03*
X556000Y625000D02*
D03*
X321000Y625677D02*
D03*
X343500Y432000D02*
D03*
X344500Y439000D02*
D03*
X370000Y486500D02*
D03*
X368000Y495000D02*
D03*
X339000Y584000D02*
D03*
X356500Y627000D02*
D03*
X345500Y586000D02*
D03*
X358500Y633500D02*
D03*
X351500Y587000D02*
D03*
X365000Y634500D02*
D03*
X357500Y587000D02*
D03*
X371500Y635500D02*
D03*
X364000Y587500D02*
D03*
X392000Y632500D02*
D03*
X370500Y587000D02*
D03*
X381500Y631000D02*
D03*
X348000Y506000D02*
D03*
X348500Y489000D02*
D03*
X459000Y343000D02*
D03*
X378500Y319000D02*
D03*
X427500Y321500D02*
D03*
X349500Y325500D02*
D03*
X419000Y344000D02*
D03*
X411500Y325000D02*
D03*
X341000Y363000D02*
D03*
X373500Y392000D02*
D03*
X390000Y555500D02*
D03*
X389500Y564500D02*
D03*
X385500Y591500D02*
D03*
X344000Y619000D02*
D03*
M02*
