G04 Layer_Color=8421504*
%FSLAX25Y25*%
%MOIN*%
G70*
G01*
G75*
%ADD10R,0.09842X0.13780*%
%ADD11R,0.04724X0.07700*%
%ADD12R,0.09055X0.12992*%
%ADD13R,0.04724X0.12205*%
%ADD19C,0.00050*%
D10*
X545000Y342295D02*
D03*
Y316705D02*
D03*
X502000Y342295D02*
D03*
Y316705D02*
D03*
D11*
X613894Y339347D02*
D03*
X606020D02*
D03*
X598146D02*
D03*
X590272D02*
D03*
D12*
X631500Y319500D02*
D03*
X572287D02*
D03*
X527000Y684500D02*
D03*
X629362D02*
D03*
X467244Y314815D02*
D03*
X364882D02*
D03*
X371008Y684185D02*
D03*
X473370D02*
D03*
D13*
X542748Y664815D02*
D03*
X550622D02*
D03*
X558496D02*
D03*
X566370D02*
D03*
X574244D02*
D03*
X582118D02*
D03*
X589992D02*
D03*
X597866D02*
D03*
X605740D02*
D03*
X613614D02*
D03*
X451496Y334500D02*
D03*
X443622D02*
D03*
X435748D02*
D03*
X427874D02*
D03*
X420000D02*
D03*
X412126D02*
D03*
X404252D02*
D03*
X396378D02*
D03*
X388504D02*
D03*
X380630D02*
D03*
X386756Y664500D02*
D03*
X394630D02*
D03*
X402504D02*
D03*
X410378D02*
D03*
X418252D02*
D03*
X426126D02*
D03*
X434000D02*
D03*
X441874D02*
D03*
X449748D02*
D03*
X457622D02*
D03*
D19*
X696850Y686850D02*
G03*
X686850Y696850I-10000J0D01*
G01*
Y303150D02*
G03*
X696850Y313150I0J10000D01*
G01*
X303150D02*
G03*
X313150Y303150I10000J0D01*
G01*
Y696850D02*
G03*
X303150Y686850I0J-10000D01*
G01*
X329646Y676850D02*
G03*
X329646Y676850I-6496J0D01*
G01*
X683347Y323150D02*
G03*
X683347Y323150I-6496J0D01*
G01*
X329646D02*
G03*
X329646Y323150I-6496J0D01*
G01*
X683347Y676850D02*
G03*
X683347Y676850I-6496J0D01*
G01*
X313150Y303150D02*
X686850D01*
X303150Y313150D02*
Y686850D01*
X313150Y696850D02*
X686850D01*
M02*
