M48
;Layer_Color=9474304
;FILE_FORMAT=2:5
INCH,LZ
;TYPE=PLATED
T1F00S00C0.01400
T2F00S00C0.01600
T3F00S00C0.02800
T4F00S00C0.03543
T5F00S00C0.04300
%
T01
X03655Y0457
Y0464
X0371Y0463
X03715Y0459
X0371Y04685
X03725Y0474
X0368Y0475
X03655Y0471
T02
X0383Y0427
X03875Y0428
X03885Y04345
X039Y04395
Y04455
X03925Y04495
X0391Y04665
X0387Y04635
X05585Y066
X05665Y0661
X05745Y06625
X0582Y0661
X05895Y0667
X0598Y0664
X0605Y0668
X0573Y0675
T03
X03495Y03255
X03785Y0319
X04115Y0325
X04275Y03215
X0419Y0344
X0459Y0343
X03735Y0392
X037Y04385
X03655Y0443
X0367Y04505
X0346
X03445Y0439
X03435Y0432
X0341Y0363
X03425Y04855
X03485Y0489
X0348Y0506
X0368Y0495
X037Y04865
X03655Y04795
X039Y05555
X03895Y05645
X03855Y05915
X03705Y0587
X0364Y05875
X03575Y0587
X03515
X03455Y0586
X0339Y0584
X0344Y0619
X0443Y0534
X0392Y06325
X03815Y0631
X03715Y06355
X0365Y06345
X03585Y06335
X03565Y0627
X0321Y0625677
X0556Y0625
T04
X03165Y0409
X03265
Y0419
X03165
Y0429
X03265
Y0439
X03165
Y0449
X03265
Y0459
X03165
X06785Y04625
X06885
Y04525
X06785
Y04425
X06885
Y04325
X06785
Y04225
X06885
Y04125
X06785
Y04025
X06885
Y04725
Y04825
Y04925
Y05025
Y05125
Y05225
Y05325
Y05425
Y05525
Y05625
Y05725
Y05825
Y05925
X06785
Y05825
Y05725
Y05625
Y05525
Y05425
Y05325
Y05225
Y05125
Y05025
Y04925
Y04825
Y04725
X03265Y0469
X03165
Y0479
X03265
Y0489
X03165
Y0499
X03265
Y0509
X03165
Y0519
X03265
Y0529
X03165
Y0539
X03265
Y0549
X03165
Y0559
X03265
Y0569
X03165
Y0579
X03265
Y0589
X03165
Y0599
X03265
T05
X0409Y03745
Y03845
Y03945
Y04045
Y04145
Y0439
Y0449
Y0459
X0459
Y0449
Y0439
Y04145
Y04045
Y03945
Y03845
Y03745
X05385
Y03845
Y03945
Y04045
Y04145
Y0439
Y0449
Y0459
X05885
Y0449
Y0439
Y04145
Y04045
Y03945
Y03845
Y03745
Y0469
Y0479
Y05085
Y05185
Y05285
Y05385
Y05485
Y05755
Y05855
Y05955
Y06055
Y06155
X05385
Y06055
Y05955
Y05855
Y05755
Y05485
Y05385
Y05285
Y05185
Y05085
Y0479
Y0469
X0459
Y0479
Y05085
Y05185
Y05285
Y05385
Y05485
Y05755
Y05855
Y05955
Y06055
Y06155
X0409
Y06055
Y05955
Y05855
Y05755
Y05485
Y05385
Y05285
Y05185
Y05085
Y0479
Y0469
M30
