G04 Layer_Color=32768*
%FSLAX25Y25*%
%MOIN*%
G70*
G01*
G75*
%ADD19C,0.00050*%
%ADD35C,0.00394*%
%ADD36C,0.00197*%
D19*
X696850Y686850D02*
G03*
X686850Y696850I-10000J0D01*
G01*
Y303150D02*
G03*
X696850Y313150I0J10000D01*
G01*
X303150D02*
G03*
X313150Y303150I10000J0D01*
G01*
Y696850D02*
G03*
X303150Y686850I0J-10000D01*
G01*
X329646Y676850D02*
G03*
X329646Y676850I-6496J0D01*
G01*
X683347Y323150D02*
G03*
X683347Y323150I-6496J0D01*
G01*
X329646D02*
G03*
X329646Y323150I-6496J0D01*
G01*
X683347Y676850D02*
G03*
X683347Y676850I-6496J0D01*
G01*
X313150Y303150D02*
X686850D01*
X303150Y313150D02*
Y686850D01*
X313150Y696850D02*
X686850D01*
D35*
X543032Y329500D02*
X546969D01*
X545000Y327532D02*
Y331469D01*
X500032Y329500D02*
X503968D01*
X502000Y327532D02*
Y331469D01*
D36*
X562520Y309421D02*
Y349579D01*
X527480D02*
X562520D01*
X527480Y309421D02*
Y349579D01*
Y309421D02*
X562520Y309421D01*
X519520D02*
Y349579D01*
X484480D02*
X519520D01*
X484480Y309421D02*
Y349579D01*
Y309421D02*
X519520Y309421D01*
M02*
