G04 Layer_Color=32896*
%FSLAX25Y25*%
%MOIN*%
G70*
G01*
G75*
%ADD15C,0.00800*%
%ADD16C,0.01000*%
%ADD19C,0.00050*%
%ADD25C,0.00787*%
D15*
X676500Y392500D02*
Y394166D01*
Y393333D01*
X681498D01*
X680665Y392500D01*
X686500Y395832D02*
Y392500D01*
X689832Y395832D01*
X690665D01*
X691498Y394999D01*
Y393333D01*
X690665Y392500D01*
X686500Y602999D02*
X691498D01*
X688999Y600500D01*
Y603832D01*
X690665Y605498D02*
X691498Y606331D01*
Y607998D01*
X690665Y608831D01*
X687333D01*
X686500Y607998D01*
Y606331D01*
X687333Y605498D01*
X690665D01*
X680665Y600500D02*
X681498Y601333D01*
Y602999D01*
X680665Y603832D01*
X679832D01*
X678999Y602999D01*
Y602166D01*
Y602999D01*
X678166Y603832D01*
X677333D01*
X676500Y602999D01*
Y601333D01*
X677333Y600500D01*
Y605498D02*
X676500Y606331D01*
Y607998D01*
X677333Y608831D01*
X680665D01*
X681498Y607998D01*
Y606331D01*
X680665Y605498D01*
X679832D01*
X678999Y606331D01*
Y608831D01*
D16*
X692900Y612600D02*
Y618598D01*
X689901D01*
X688901Y617598D01*
Y615599D01*
X689901Y614599D01*
X692900D01*
X682903Y612600D02*
X686902D01*
X682903Y616599D01*
Y617598D01*
X683903Y618598D01*
X685902D01*
X686902Y617598D01*
D19*
X696850Y686850D02*
G03*
X686850Y696850I-10000J0D01*
G01*
Y303150D02*
G03*
X696850Y313150I0J10000D01*
G01*
X303150D02*
G03*
X313150Y303150I10000J0D01*
G01*
Y696850D02*
G03*
X303150Y686850I0J-10000D01*
G01*
X329646Y676850D02*
G03*
X329646Y676850I-6496J0D01*
G01*
X683347Y323150D02*
G03*
X683347Y323150I-6496J0D01*
G01*
X329646D02*
G03*
X329646Y323150I-6496J0D01*
G01*
X683347Y676850D02*
G03*
X683347Y676850I-6496J0D01*
G01*
X313150Y303150D02*
X686850D01*
X303150Y313150D02*
Y686850D01*
X313150Y696850D02*
X686850D01*
D25*
X673500Y397500D02*
Y597500D01*
X693500Y397500D02*
Y597500D01*
X673500Y397500D02*
X693500D01*
X673500Y597500D02*
X693500D01*
M02*
