G04 Layer_Color=12632256*
%FSLAX25Y25*%
%MOIN*%
G70*
G01*
G75*
%ADD19C,0.00050*%
%ADD20C,0.05905*%
%ADD21R,0.05905X0.05905*%
%ADD22O,0.08000X0.07000*%
D19*
X696850Y686850D02*
G03*
X686850Y696850I-10000J0D01*
G01*
Y303150D02*
G03*
X696850Y313150I0J10000D01*
G01*
X303150D02*
G03*
X313150Y303150I10000J0D01*
G01*
Y696850D02*
G03*
X303150Y686850I0J-10000D01*
G01*
X329646Y676850D02*
G03*
X329646Y676850I-6496J0D01*
G01*
X683347Y323150D02*
G03*
X683347Y323150I-6496J0D01*
G01*
X329646D02*
G03*
X329646Y323150I-6496J0D01*
G01*
X683347Y676850D02*
G03*
X683347Y676850I-6496J0D01*
G01*
X313150Y303150D02*
X686850D01*
X303150Y313150D02*
Y686850D01*
X313150Y696850D02*
X686850D01*
D20*
X688500Y592500D02*
D03*
X678500D02*
D03*
X688500Y582500D02*
D03*
X678500D02*
D03*
X688500Y572500D02*
D03*
X678500D02*
D03*
X688500Y562500D02*
D03*
X678500D02*
D03*
X688500Y552500D02*
D03*
X678500D02*
D03*
X688500Y542500D02*
D03*
X678500D02*
D03*
X688500Y532500D02*
D03*
X678500D02*
D03*
X688500Y522500D02*
D03*
X678500D02*
D03*
X688500Y512500D02*
D03*
X678500D02*
D03*
X688500Y502500D02*
D03*
X678500D02*
D03*
X688500Y492500D02*
D03*
X678500D02*
D03*
X688500Y482500D02*
D03*
X678500D02*
D03*
X688500Y472500D02*
D03*
X678500D02*
D03*
X688500Y462500D02*
D03*
X678500D02*
D03*
X688500Y452500D02*
D03*
X678500D02*
D03*
X688500Y442500D02*
D03*
X678500D02*
D03*
X688500Y432500D02*
D03*
X678500D02*
D03*
X688500Y422500D02*
D03*
X678500D02*
D03*
X688500Y412500D02*
D03*
X678500D02*
D03*
X688500Y402500D02*
D03*
X326500Y409000D02*
D03*
X316500D02*
D03*
X326500Y419000D02*
D03*
X316500D02*
D03*
X326500Y429000D02*
D03*
X316500D02*
D03*
X326500Y439000D02*
D03*
X316500D02*
D03*
X326500Y449000D02*
D03*
X316500D02*
D03*
X326500Y459000D02*
D03*
X316500D02*
D03*
X326500Y469000D02*
D03*
X316500D02*
D03*
X326500Y479000D02*
D03*
X316500D02*
D03*
X326500Y489000D02*
D03*
X316500D02*
D03*
X326500Y499000D02*
D03*
X316500D02*
D03*
X326500Y509000D02*
D03*
X316500D02*
D03*
X326500Y519000D02*
D03*
X316500D02*
D03*
X326500Y529000D02*
D03*
X316500D02*
D03*
X326500Y539000D02*
D03*
X316500D02*
D03*
X326500Y549000D02*
D03*
X316500D02*
D03*
X326500Y559000D02*
D03*
X316500D02*
D03*
X326500Y569000D02*
D03*
X316500D02*
D03*
X326500Y579000D02*
D03*
X316500D02*
D03*
X326500Y589000D02*
D03*
X316500D02*
D03*
X326500Y599000D02*
D03*
D21*
X678500Y402500D02*
D03*
X316500Y599000D02*
D03*
D22*
X588500Y414500D02*
D03*
Y404500D02*
D03*
Y394500D02*
D03*
Y384500D02*
D03*
Y374500D02*
D03*
X538500D02*
D03*
Y384500D02*
D03*
Y394500D02*
D03*
Y404500D02*
D03*
Y414500D02*
D03*
X459000Y615500D02*
D03*
Y605500D02*
D03*
Y595500D02*
D03*
Y585500D02*
D03*
Y575500D02*
D03*
X409000D02*
D03*
Y585500D02*
D03*
Y595500D02*
D03*
Y605500D02*
D03*
Y615500D02*
D03*
X459000Y548500D02*
D03*
Y538500D02*
D03*
Y528500D02*
D03*
Y518500D02*
D03*
Y508500D02*
D03*
X409000D02*
D03*
Y518500D02*
D03*
Y528500D02*
D03*
Y538500D02*
D03*
Y548500D02*
D03*
X459000Y479000D02*
D03*
Y469000D02*
D03*
Y459000D02*
D03*
Y449000D02*
D03*
Y439000D02*
D03*
X409000D02*
D03*
Y449000D02*
D03*
Y459000D02*
D03*
Y469000D02*
D03*
Y479000D02*
D03*
X459000Y414500D02*
D03*
Y404500D02*
D03*
Y394500D02*
D03*
Y384500D02*
D03*
Y374500D02*
D03*
X409000D02*
D03*
Y384500D02*
D03*
Y394500D02*
D03*
Y404500D02*
D03*
Y414500D02*
D03*
X588500Y615500D02*
D03*
Y605500D02*
D03*
Y595500D02*
D03*
Y585500D02*
D03*
Y575500D02*
D03*
X538500D02*
D03*
Y585500D02*
D03*
Y595500D02*
D03*
Y605500D02*
D03*
Y615500D02*
D03*
X588500Y548500D02*
D03*
Y538500D02*
D03*
Y528500D02*
D03*
Y518500D02*
D03*
Y508500D02*
D03*
X538500D02*
D03*
Y518500D02*
D03*
Y528500D02*
D03*
Y538500D02*
D03*
Y548500D02*
D03*
X588500Y479000D02*
D03*
Y469000D02*
D03*
Y459000D02*
D03*
Y449000D02*
D03*
Y439000D02*
D03*
X538500D02*
D03*
Y449000D02*
D03*
Y459000D02*
D03*
Y469000D02*
D03*
Y479000D02*
D03*
M02*
