G04 Layer_Physical_Order=1*
G04 Layer_Color=255*
%FSLAX25Y25*%
%MOIN*%
G70*
G01*
G75*
%ADD10R,0.09842X0.13780*%
%ADD11R,0.04724X0.07700*%
%ADD12R,0.09055X0.12992*%
%ADD13R,0.04724X0.12205*%
%ADD14C,0.05000*%
%ADD15C,0.00800*%
%ADD16C,0.01000*%
%ADD17C,0.02000*%
%ADD18C,0.00600*%
%ADD19C,0.00050*%
%ADD20C,0.05905*%
%ADD21R,0.05905X0.05905*%
%ADD22O,0.08000X0.07000*%
%ADD23C,0.03400*%
%ADD24C,0.05000*%
D10*
X545000Y342295D02*
D03*
Y316705D02*
D03*
X502000Y342295D02*
D03*
Y316705D02*
D03*
D11*
X613894Y339347D02*
D03*
X606020D02*
D03*
X598146D02*
D03*
X590272D02*
D03*
D12*
X631500Y319500D02*
D03*
X572287D02*
D03*
X527000Y684500D02*
D03*
X629362D02*
D03*
X467244Y314815D02*
D03*
X364882D02*
D03*
X371008Y684185D02*
D03*
X473370D02*
D03*
D13*
X542748Y664815D02*
D03*
X550622D02*
D03*
X558496D02*
D03*
X566370D02*
D03*
X574244D02*
D03*
X582118D02*
D03*
X589992D02*
D03*
X597866D02*
D03*
X605740D02*
D03*
X613614D02*
D03*
X451496Y334500D02*
D03*
X443622D02*
D03*
X435748D02*
D03*
X427874D02*
D03*
X420000D02*
D03*
X412126D02*
D03*
X404252D02*
D03*
X396378D02*
D03*
X388504D02*
D03*
X380630D02*
D03*
X386756Y664500D02*
D03*
X394630D02*
D03*
X402504D02*
D03*
X410378D02*
D03*
X418252D02*
D03*
X426126D02*
D03*
X434000D02*
D03*
X441874D02*
D03*
X449748D02*
D03*
X457622D02*
D03*
D14*
X678500Y402500D02*
X688500D01*
X650500D02*
X678500D01*
X588500Y394500D02*
X642500D01*
X650500Y402500D01*
X678500Y412500D02*
X688500D01*
X645000D02*
X678500D01*
X637000Y404500D02*
X645000Y412500D01*
X588500Y404500D02*
X637000D01*
X678500Y422500D02*
X688500D01*
X656000D02*
X678500D01*
X588500Y459000D02*
X619500D01*
X656000Y422500D01*
X678500Y432500D02*
X688500D01*
X658000D02*
X678500D01*
X621500Y469000D02*
X658000Y432500D01*
X588500Y469000D02*
X621500D01*
X678500Y452500D02*
X688500D01*
X664000D02*
X678500D01*
X627000Y489500D02*
X664000Y452500D01*
X627000Y489500D02*
Y518000D01*
X606500Y538500D02*
X627000Y518000D01*
X588500Y538500D02*
X606500D01*
X610000Y595500D02*
X638000Y567500D01*
Y490500D02*
Y567500D01*
Y490500D02*
X666000Y462500D01*
X678500D01*
X667500Y472500D02*
X678500D01*
X646500Y493500D02*
X667500Y472500D01*
X646500Y493500D02*
Y572500D01*
X613500Y605500D02*
X646500Y572500D01*
X605500Y528500D02*
X619500Y514500D01*
Y486000D02*
Y514500D01*
Y486000D02*
X663000Y442500D01*
X588500Y528500D02*
X605500D01*
X678500Y442500D02*
X688500D01*
X663000D02*
X678500D01*
Y462500D02*
X688500D01*
X588500Y595500D02*
X610000D01*
X678500Y472500D02*
X688500D01*
X588500Y605500D02*
X613500D01*
X606500Y330500D02*
X613894Y337894D01*
Y339347D01*
X591000Y330500D02*
X606500D01*
X589500Y332000D02*
X591000Y330500D01*
X561000Y332000D02*
X589500D01*
X545705Y316705D02*
X561000Y332000D01*
X545000Y316705D02*
X545705D01*
X502000D02*
X545000D01*
Y342295D02*
X575205D01*
X502000D02*
X545000D01*
X578153Y339347D02*
X590272D01*
X575205Y342295D02*
X578153Y339347D01*
X443000Y509000D02*
Y534000D01*
Y438500D02*
Y509000D01*
Y438500D02*
X443500Y439000D01*
X443000Y509000D02*
X443500Y508500D01*
Y439000D02*
X459000D01*
X443500Y508500D02*
X459000D01*
X588500Y374500D02*
X590272Y372728D01*
Y339347D02*
Y372728D01*
Y339347D02*
X598146D01*
X606020D02*
X613894D01*
X606020D02*
Y374480D01*
X596000Y384500D02*
X606020Y374480D01*
X588500Y384500D02*
X596000D01*
X596500Y568500D02*
Y577900D01*
X596485Y568500D02*
X596500D01*
X588900Y585500D02*
X596500Y577900D01*
X587000Y508500D02*
X588500D01*
X583000Y512500D02*
X587000Y508500D01*
X580515Y512500D02*
X583000D01*
X571000Y522015D02*
X580515Y512500D01*
X571000Y522015D02*
Y557985D01*
X596500Y429529D02*
Y441399D01*
X590471Y423500D02*
X596500Y429529D01*
X584500Y423500D02*
X590471D01*
X588500Y439000D02*
X590500Y437000D01*
Y432015D02*
Y437000D01*
X587985Y429500D02*
X590500Y432015D01*
X591899Y446000D02*
X596500Y441399D01*
X591500Y446000D02*
X591899D01*
X588500Y449000D02*
X591500Y446000D01*
X590985Y563000D02*
X596485Y568500D01*
X584500Y563000D02*
X590985D01*
X577000Y555500D02*
X584500Y563000D01*
X588500Y569000D02*
Y575500D01*
X582015Y569000D02*
X588500D01*
X571000Y557985D02*
X582015Y569000D01*
X588500Y508500D02*
X590000Y507000D01*
Y499000D02*
Y507000D01*
X586000Y495000D02*
X590000Y499000D01*
X594500Y518500D02*
X596000Y517000D01*
X588485Y489000D02*
X596000Y496515D01*
Y517000D01*
X585000Y489000D02*
X588485D01*
X582515Y495000D02*
X586000D01*
X572000Y452500D02*
Y484485D01*
X582515Y495000D01*
X587515Y374500D02*
X588500D01*
X572000Y390015D02*
X587515Y374500D01*
X572000Y390015D02*
Y419485D01*
X582015Y429500D01*
X587985D01*
X586000Y384500D02*
X588500D01*
X578000Y392500D02*
X586000Y384500D01*
X578000Y392500D02*
Y417000D01*
X584500Y423500D01*
X585500Y439000D02*
X588500D01*
X572000Y452500D02*
X585500Y439000D01*
X587000Y450500D02*
X588500Y449000D01*
X582500Y450500D02*
X587000D01*
X578000Y455000D02*
X582500Y450500D01*
X578000Y482000D02*
X585000Y489000D01*
X578000Y455000D02*
Y482000D01*
X588500Y518500D02*
X594500D01*
X583000D02*
X588500D01*
X577000Y524500D02*
X583000Y518500D01*
X577000Y524500D02*
Y555500D01*
X588500Y585500D02*
X588900D01*
X447500Y374500D02*
X459000D01*
X443000Y379000D02*
X447500Y374500D01*
X443000Y379000D02*
Y438500D01*
D15*
X316500Y439000D02*
X320910D01*
X369000D02*
X370000D01*
X326500D02*
X344500D01*
X365400Y443100D02*
X366400Y444100D01*
X316500Y449000D02*
X320500Y453000D01*
X371500Y636000D02*
X426020D01*
X326500Y449000D02*
X328000Y450500D01*
X453110Y659988D02*
X457622Y664500D01*
X453110Y657983D02*
Y659988D01*
X605000Y681500D02*
X613614Y672886D01*
X579500Y681500D02*
X605000D01*
X573000Y675000D02*
X579500Y681500D01*
X613614Y664815D02*
Y672886D01*
X389500Y466500D02*
X391000D01*
X371382Y476700D02*
X379300D01*
X369682Y475000D02*
X371382Y476700D01*
X379300D02*
X389500Y466500D01*
X368000Y475000D02*
X369682D01*
X374000Y474000D02*
X384500Y463500D01*
X387000D01*
X372500Y474000D02*
X374000D01*
X372300Y471200D02*
X391400Y452100D01*
Y450600D02*
Y452100D01*
X365700Y471200D02*
X372300D01*
X365500Y471000D02*
X365700Y471200D01*
X391400Y450600D02*
X392500Y449500D01*
X389800Y445700D02*
Y450618D01*
X371918Y468500D02*
X389800Y450618D01*
X371000Y468500D02*
X371918D01*
X389800Y445700D02*
X390000Y445500D01*
X376740Y461200D02*
X383200Y454740D01*
X375800Y461200D02*
X376740D01*
X388000Y439500D02*
X390000D01*
X383200Y444300D02*
Y454740D01*
X371300Y465700D02*
X372118D01*
X373700Y464118D01*
X371200Y465800D02*
X371300Y465700D01*
X373700Y463300D02*
X375800Y461200D01*
X373700Y463300D02*
Y464118D01*
X383200Y444300D02*
X388000Y439500D01*
X369882Y465700D02*
Y465800D01*
X371200D01*
X368182Y464000D02*
X369882Y465700D01*
X365500Y464000D02*
X368182D01*
X376160Y459800D02*
X381800Y454160D01*
Y441200D02*
X388500Y434500D01*
X381800Y441200D02*
Y454160D01*
X371300Y461700D02*
X373280D01*
X371000Y462000D02*
Y463000D01*
X375180Y459800D02*
X376160D01*
X373280Y461700D02*
X375180Y459800D01*
X371000Y462000D02*
X371300Y461700D01*
X374000Y459000D02*
X374600Y458400D01*
X375580D01*
X371500Y459000D02*
X374000D01*
X380400Y435100D02*
Y453580D01*
X375580Y458400D02*
X380400Y453580D01*
Y435100D02*
X387500Y428000D01*
X379000Y431000D02*
X383000Y427000D01*
X375000Y457000D02*
X379000Y453000D01*
Y431000D02*
Y453000D01*
X373318Y457000D02*
X375000D01*
X372618Y456300D02*
X373318Y457000D01*
X366200Y456300D02*
X372618D01*
X365500Y457000D02*
X366200Y456300D01*
X369000Y439000D02*
Y444450D01*
X342500Y459000D02*
Y485500D01*
X336500Y453000D02*
X342500Y459000D01*
X365500Y450500D02*
X367000D01*
X366950Y446500D02*
X369000Y444450D01*
X365980Y446500D02*
X366950D01*
X359900Y452580D02*
X365980Y446500D01*
X361300Y454700D02*
X365500Y450500D01*
X359900Y452580D02*
Y456257D01*
X354900Y461258D02*
X359900Y456257D01*
X365400Y443100D02*
X365500Y443000D01*
X328000Y450500D02*
X346000D01*
X358500Y452000D02*
X366400Y444100D01*
X358500Y452000D02*
Y455678D01*
X353500Y469822D02*
X356500Y472822D01*
X353500Y460678D02*
Y469822D01*
Y460678D02*
X358500Y455678D01*
X356500Y472822D02*
Y479410D01*
X361700Y484610D01*
Y497610D01*
X366000Y501909D01*
Y562000D01*
X345500Y582500D02*
X366000Y562000D01*
X357900Y478830D02*
X363535Y484465D01*
X357900Y472242D02*
Y478830D01*
X354900Y469242D02*
X357900Y472242D01*
X354900Y461258D02*
Y469242D01*
X359300Y478250D02*
X364050Y483000D01*
X359300Y471663D02*
Y478250D01*
X356300Y468663D02*
X359300Y471663D01*
X356300Y461837D02*
Y468663D01*
Y461837D02*
X361300Y456837D01*
Y454700D02*
Y456837D01*
X365500Y479500D02*
X371000D01*
X369000Y480900D02*
X370420D01*
X369000D02*
Y480950D01*
X329500Y432000D02*
X343500D01*
X326453Y435047D02*
X329500Y432000D01*
X324863Y435047D02*
X326453D01*
X320910Y439000D02*
X324863Y435047D01*
X363535Y484465D02*
Y492535D01*
X363100Y492970D02*
X363535Y492535D01*
X363100Y492970D02*
Y497030D01*
X368000Y501930D01*
X364500Y496450D02*
X369500Y501450D01*
X366950Y483000D02*
X369000Y480950D01*
X364050Y483000D02*
X366950D01*
X369500Y487000D02*
X370000Y486500D01*
X373000Y577480D02*
X374900Y575580D01*
X371000Y479500D02*
X374900Y483400D01*
X364000Y584500D02*
X373500Y575000D01*
X370420Y480900D02*
X373500Y483980D01*
Y575000D01*
X374900Y483400D02*
Y575580D01*
X369500Y487000D02*
Y488550D01*
X364500Y493550D02*
X369500Y488550D01*
X364500Y493550D02*
Y496450D01*
X369500Y501450D02*
Y568500D01*
X370500Y582500D02*
X373000Y580000D01*
Y577480D02*
Y580000D01*
X320500Y453000D02*
X336500D01*
X368000Y495000D02*
Y495500D01*
X371000Y498500D01*
X357500Y585000D02*
X371000Y571500D01*
Y498500D02*
Y571500D01*
X351500Y586500D02*
X369500Y568500D01*
X344050Y582500D02*
X345500D01*
X342550Y584000D02*
X344050Y582500D01*
X339000Y584000D02*
X342550D01*
X356500Y627000D02*
Y630550D01*
X355000Y632050D02*
X356500Y630550D01*
X355000Y632050D02*
Y634950D01*
X361850Y641800D01*
X415300D01*
X418252Y644752D01*
Y664500D01*
X368000Y501930D02*
Y563500D01*
X345500Y586000D02*
X368000Y563500D01*
X358500Y633500D02*
Y634500D01*
X364400Y640400D01*
X377580D01*
X379180Y638800D01*
X415300D01*
X426126Y649626D01*
Y664500D01*
X351500Y586500D02*
Y587000D01*
X365000Y634500D02*
Y635000D01*
X369000Y639000D01*
X377000D01*
X378600Y637400D01*
X423900D01*
X434000Y647500D01*
Y664500D01*
X357500Y585000D02*
Y587000D01*
X371500Y635500D02*
Y636000D01*
X426020D02*
X441874Y651854D01*
Y664500D01*
X364000Y584500D02*
Y587500D01*
X392000Y632500D02*
X392500Y633000D01*
X424127Y629000D02*
X453110Y657983D01*
X390550Y629000D02*
X424127D01*
X388550Y631000D02*
X390550Y629000D01*
X381500Y631000D02*
X388550D01*
X392500Y633000D02*
X425000D01*
X449748Y657748D01*
Y664500D01*
X370500Y582500D02*
Y587000D01*
D16*
X386000Y592000D02*
X387000Y591000D01*
X316500Y589000D02*
X322000Y594500D01*
X326500Y589000D02*
X330000Y592500D01*
X347500Y479591D02*
Y489000D01*
X316500Y599000D02*
Y613000D01*
X381400Y487837D02*
X400500Y468737D01*
Y416500D02*
Y468737D01*
Y416500D02*
X402500Y414500D01*
X349000Y459379D02*
Y471121D01*
Y459379D02*
X354400Y453979D01*
Y447021D02*
Y453979D01*
X354300Y446921D02*
X354400Y447021D01*
X354300Y392200D02*
Y446921D01*
X352700Y390972D02*
Y447583D01*
X352800Y447683D01*
Y453317D01*
X347200Y458917D02*
X352800Y453317D01*
X347200Y458917D02*
Y471583D01*
X345600Y472246D02*
X349200Y475846D01*
X345600Y458254D02*
Y472246D01*
Y458254D02*
X351200Y452654D01*
Y448346D02*
Y452654D01*
X351100Y448246D02*
X351200Y448346D01*
X351100Y389743D02*
Y448246D01*
X344000Y472909D02*
X347600Y476509D01*
X344000Y457591D02*
Y472909D01*
Y457591D02*
X349600Y451991D01*
Y449009D02*
Y451991D01*
X349500Y448909D02*
X349600Y449009D01*
X349500Y388515D02*
Y448909D01*
X347200Y471583D02*
X350800Y475183D01*
X349000Y471121D02*
X352400Y474521D01*
X402500Y414500D02*
X409000D01*
X375000Y577601D02*
X381400Y571201D01*
Y487837D02*
Y571201D01*
X371500Y592500D02*
X375000Y589000D01*
Y577601D02*
Y589000D01*
X355300Y486183D02*
Y491817D01*
X352300Y483183D02*
X355300Y486183D01*
X352300Y481579D02*
Y483183D01*
Y481579D02*
X352400Y481479D01*
Y474521D02*
Y481479D01*
X353700Y486846D02*
Y491154D01*
X350700Y483846D02*
X353700Y486846D01*
X350700Y480917D02*
Y483846D01*
Y480917D02*
X350800Y480817D01*
Y475183D02*
Y480817D01*
X352100Y487509D02*
Y490491D01*
X349100Y484509D02*
X352100Y487509D01*
X349100Y480254D02*
Y484509D01*
Y480254D02*
X349200Y480154D01*
Y475846D02*
Y480154D01*
X347500Y479591D02*
X347600Y479491D01*
Y476509D02*
Y479491D01*
X347500Y489000D02*
X348500D01*
X354300Y392200D02*
X387000Y359500D01*
X352700Y390972D02*
X386172Y357500D01*
X351100Y389743D02*
X385343Y355500D01*
X349500Y388515D02*
X384515Y353500D01*
X351985Y516000D02*
X354300Y513685D01*
Y492817D02*
Y513685D01*
Y492817D02*
X355300Y491817D01*
X351157Y514000D02*
X352700Y512457D01*
Y492154D02*
Y512457D01*
Y492154D02*
X353700Y491154D01*
X351100Y491491D02*
Y500900D01*
Y491491D02*
X352100Y490491D01*
X348000Y504000D02*
X351100Y500900D01*
X348000Y504000D02*
Y506000D01*
X540485Y353500D02*
X553500Y366515D01*
X384515Y353500D02*
X540485D01*
X539657Y355500D02*
X551500Y367343D01*
X385343Y355500D02*
X539657D01*
X538828Y357500D02*
X549500Y368172D01*
X386172Y357500D02*
X538828D01*
X538000Y359500D02*
X547500Y369000D01*
X387000Y359500D02*
X538000D01*
X553500Y366515D02*
Y397985D01*
X551500Y367343D02*
Y397157D01*
X549500Y368172D02*
Y396328D01*
X547500Y369000D02*
Y395500D01*
X470343Y559500D02*
X482500Y547343D01*
X394000Y559500D02*
X470343D01*
X390000Y555500D02*
X394000Y559500D01*
X538500Y469000D02*
X548500Y459000D01*
Y397328D02*
Y459000D01*
Y397328D02*
X549500Y396328D01*
X538500Y605500D02*
X550500Y593500D01*
Y529328D02*
Y593500D01*
Y529328D02*
X552500Y527328D01*
Y398985D02*
Y527328D01*
Y398985D02*
X553500Y397985D01*
X538500Y538500D02*
X550500Y526500D01*
Y398157D02*
Y526500D01*
Y398157D02*
X551500Y397157D01*
X500000Y453000D02*
X538500Y414500D01*
Y404500D02*
X547500Y395500D01*
X316500Y613000D02*
X318500Y615000D01*
X329500Y516000D02*
X351985D01*
X321500Y514000D02*
X351157D01*
X326500Y519000D02*
X329500Y516000D01*
X316500Y519000D02*
X321500Y514000D01*
X385000Y554843D02*
Y584828D01*
X391343Y548500D02*
X409000D01*
X385000Y554843D02*
X391343Y548500D01*
X482500Y511672D02*
Y547343D01*
Y511672D02*
X500000Y494172D01*
Y453000D02*
Y494172D01*
X393500Y563500D02*
Y566157D01*
X391157Y568500D02*
X393500Y566157D01*
X388500Y568500D02*
X391157D01*
X387000Y570000D02*
X388500Y568500D01*
X389500Y564500D02*
X392500Y561500D01*
X471172D01*
X484500Y548172D01*
Y512500D02*
Y548172D01*
Y512500D02*
X518000Y479000D01*
X538500D01*
X385500Y591500D02*
X386000Y592000D01*
X387000Y570000D02*
Y591000D01*
X393500Y563500D02*
X472000D01*
X487000Y548500D01*
X538500D01*
X344000Y619000D02*
X348000Y623000D01*
X318500Y615000D02*
X408500D01*
X409000Y615500D01*
X348000Y623000D02*
X474500D01*
X482000Y615500D01*
X538500D01*
X373328Y596500D02*
X385000Y584828D01*
X329000Y596500D02*
X373328D01*
X326500Y599000D02*
X329000Y596500D01*
X330000Y592500D02*
X371500D01*
X322000Y594500D02*
X372500D01*
X383000Y584000D01*
X392500Y479000D02*
X409000D01*
X383000Y488500D02*
X392500Y479000D01*
X383000Y488500D02*
Y584000D01*
X570499Y355498D02*
X569499Y356498D01*
X567500D01*
X566500Y355498D01*
Y351500D01*
X567500Y350500D01*
X569499D01*
X570499Y351500D01*
Y353499D01*
X568499D01*
X572498Y350500D02*
Y356498D01*
X576497Y350500D01*
Y356498D01*
X578496D02*
Y350500D01*
X581495D01*
X582495Y351500D01*
Y355498D01*
X581495Y356498D01*
X578496D01*
X612500D02*
Y352499D01*
X614499Y350500D01*
X616499Y352499D01*
Y356498D01*
X618498Y353499D02*
X622497D01*
X620497Y355498D02*
Y351500D01*
X630494Y348501D02*
Y354499D01*
X633493D01*
X634493Y353499D01*
Y351500D01*
X633493Y350500D01*
X630494D01*
X637492D02*
X639491D01*
X640491Y351500D01*
Y353499D01*
X639491Y354499D01*
X637492D01*
X636492Y353499D01*
Y351500D01*
X637492Y350500D01*
X642490Y354499D02*
Y351500D01*
X643490Y350500D01*
X644490Y351500D01*
X645489Y350500D01*
X646489Y351500D01*
Y354499D01*
X651487Y350500D02*
X649488D01*
X648488Y351500D01*
Y353499D01*
X649488Y354499D01*
X651487D01*
X652487Y353499D01*
Y352499D01*
X648488D01*
X654486Y354499D02*
Y350500D01*
Y352499D01*
X655486Y353499D01*
X656486Y354499D01*
X657485D01*
D17*
X326500Y549000D02*
X349000D01*
X375500Y649100D02*
X394154D01*
X344423D02*
X375500D01*
X376000Y649600D01*
Y667500D01*
X390100Y681600D01*
X460577D01*
X466177Y676000D01*
X545000D01*
X550622Y670378D01*
Y664815D02*
Y670378D01*
X466500Y672000D02*
X503500Y635000D01*
X459500Y679000D02*
X466500Y672000D01*
X535563D02*
X542748Y664815D01*
X466500Y672000D02*
X535563D01*
X373500Y392000D02*
X403500Y362000D01*
X356400Y409100D02*
X373500Y392000D01*
X356400Y409100D02*
Y446051D01*
X351500Y459849D02*
Y470651D01*
Y459849D02*
X356500Y454849D01*
Y446151D02*
Y454849D01*
X356400Y446051D02*
X356500Y446151D01*
X308000Y367000D02*
Y540500D01*
X357400Y485314D02*
Y492687D01*
X354500Y482413D02*
X357400Y485314D01*
X354500Y473651D02*
Y482413D01*
X351500Y470651D02*
X354500Y473651D01*
X551000Y625000D02*
X556000D01*
X541000Y635000D02*
X551000Y625000D01*
X503500Y635000D02*
X541000D01*
X397000Y679000D02*
X459500D01*
X394630Y676630D02*
X397000Y679000D01*
X394630Y664500D02*
Y676630D01*
X386756Y664500D02*
X394630D01*
X395231Y646500D02*
X410378Y661647D01*
X345500Y646500D02*
X395231D01*
X325100Y626100D02*
X345500Y646500D01*
X410378Y661647D02*
Y664500D01*
X402504Y657450D02*
Y664500D01*
X394154Y649100D02*
X402504Y657450D01*
X325100Y623979D02*
Y626100D01*
X322698Y621577D02*
X325100Y623979D01*
X320577Y621577D02*
X322698D01*
X308000Y609000D02*
X320577Y621577D01*
X321000Y625677D02*
X344423Y649100D01*
X308000Y540500D02*
Y609000D01*
X349000Y549000D02*
X355000Y543000D01*
Y515955D02*
Y543000D01*
Y515955D02*
X356400Y514555D01*
Y493686D02*
Y514555D01*
Y493686D02*
X357400Y492687D01*
X443622Y334500D02*
X451496D01*
X459000Y342004D02*
Y343000D01*
X451496Y334500D02*
X459000Y342004D01*
X378500Y319000D02*
X397500D01*
X402500Y314000D01*
X427000D01*
X435748Y322748D01*
Y334500D01*
X427500Y334126D02*
X427874Y334500D01*
X427500Y321500D02*
Y334126D01*
X308000Y367000D02*
X349500Y325500D01*
X308000Y540500D02*
X316500Y549000D01*
X455500Y362000D02*
X459000Y365500D01*
X403500Y362000D02*
X455500D01*
X459000Y365500D02*
Y374500D01*
D18*
X334500Y374894D02*
Y411000D01*
Y374894D02*
X340594Y368800D01*
X314000Y411949D02*
Y415000D01*
X312647Y410596D02*
X314000Y411949D01*
X312647Y407404D02*
Y410596D01*
Y407404D02*
X314000Y406051D01*
Y387500D02*
Y406051D01*
Y415000D02*
X316500Y417500D01*
X314000Y387500D02*
X337600Y363900D01*
X316500Y417500D02*
Y419000D01*
X361867Y347527D02*
X397973D01*
X346800Y362594D02*
X361867Y347527D01*
X346800Y362594D02*
Y365402D01*
X343402Y368800D02*
X346800Y365402D01*
X340594Y368800D02*
X343402D01*
X361370Y346327D02*
X385173D01*
X345600Y362097D02*
X361370Y346327D01*
X345600Y362097D02*
Y364905D01*
X342905Y367600D02*
X345600Y364905D01*
X340097Y367600D02*
X342905D01*
X321700Y385997D02*
X340097Y367600D01*
X321700Y385997D02*
Y424200D01*
X344400Y361600D02*
X371500Y334500D01*
X344400Y361600D02*
Y364408D01*
X342408Y366400D02*
X344400Y364408D01*
X339600Y366400D02*
X342408D01*
X320500Y385500D02*
X339600Y366400D01*
X371500Y334500D02*
X380630D01*
X320500Y385500D02*
Y425000D01*
X341900Y359600D02*
X376622Y324878D01*
X339592Y359600D02*
X341900D01*
X337600Y361592D02*
X339592Y359600D01*
X337600Y361592D02*
Y363900D01*
X376622Y324878D02*
X393878D01*
X419000Y335500D02*
X420000Y334500D01*
X419000Y335500D02*
Y344000D01*
X326500Y419000D02*
X334500Y411000D01*
X397973Y347527D02*
X404252Y341248D01*
Y334500D02*
Y341248D01*
X396378Y327378D02*
Y334500D01*
X393878Y324878D02*
X396378Y327378D01*
X411500Y333874D02*
X412126Y334500D01*
X411500Y325000D02*
Y333874D01*
X316500Y387500D02*
X341000Y363000D01*
X316500Y387500D02*
Y409000D01*
X385173Y346327D02*
X388504Y342996D01*
Y334500D02*
Y342996D01*
X321700Y424200D02*
X326500Y429000D01*
X316500D02*
X320500Y425000D01*
D19*
X696850Y686850D02*
G03*
X686850Y696850I-10000J0D01*
G01*
Y303150D02*
G03*
X696850Y313150I0J10000D01*
G01*
X303150D02*
G03*
X313150Y303150I10000J0D01*
G01*
Y696850D02*
G03*
X303150Y686850I0J-10000D01*
G01*
X329646Y676850D02*
G03*
X329646Y676850I-6496J0D01*
G01*
X683347Y323150D02*
G03*
X683347Y323150I-6496J0D01*
G01*
X329646D02*
G03*
X329646Y323150I-6496J0D01*
G01*
X683347Y676850D02*
G03*
X683347Y676850I-6496J0D01*
G01*
X313150Y303150D02*
X686850D01*
X303150Y313150D02*
Y686850D01*
X313150Y696850D02*
X686850D01*
D20*
X688500Y592500D02*
D03*
X678500D02*
D03*
X688500Y582500D02*
D03*
X678500D02*
D03*
X688500Y572500D02*
D03*
X678500D02*
D03*
X688500Y562500D02*
D03*
X678500D02*
D03*
X688500Y552500D02*
D03*
X678500D02*
D03*
X688500Y542500D02*
D03*
X678500D02*
D03*
X688500Y532500D02*
D03*
X678500D02*
D03*
X688500Y522500D02*
D03*
X678500D02*
D03*
X688500Y512500D02*
D03*
X678500D02*
D03*
X688500Y502500D02*
D03*
X678500D02*
D03*
X688500Y492500D02*
D03*
X678500D02*
D03*
X688500Y482500D02*
D03*
X678500D02*
D03*
X688500Y472500D02*
D03*
X678500D02*
D03*
X688500Y462500D02*
D03*
X678500D02*
D03*
X688500Y452500D02*
D03*
X678500D02*
D03*
X688500Y442500D02*
D03*
X678500D02*
D03*
X688500Y432500D02*
D03*
X678500D02*
D03*
X688500Y422500D02*
D03*
X678500D02*
D03*
X688500Y412500D02*
D03*
X678500D02*
D03*
X688500Y402500D02*
D03*
X326500Y409000D02*
D03*
X316500D02*
D03*
X326500Y419000D02*
D03*
X316500D02*
D03*
X326500Y429000D02*
D03*
X316500D02*
D03*
X326500Y439000D02*
D03*
X316500D02*
D03*
X326500Y449000D02*
D03*
X316500D02*
D03*
X326500Y459000D02*
D03*
X316500D02*
D03*
X326500Y469000D02*
D03*
X316500D02*
D03*
X326500Y479000D02*
D03*
X316500D02*
D03*
X326500Y489000D02*
D03*
X316500D02*
D03*
X326500Y499000D02*
D03*
X316500D02*
D03*
X326500Y509000D02*
D03*
X316500D02*
D03*
X326500Y519000D02*
D03*
X316500D02*
D03*
X326500Y529000D02*
D03*
X316500D02*
D03*
X326500Y539000D02*
D03*
X316500D02*
D03*
X326500Y549000D02*
D03*
X316500D02*
D03*
X326500Y559000D02*
D03*
X316500D02*
D03*
X326500Y569000D02*
D03*
X316500D02*
D03*
X326500Y579000D02*
D03*
X316500D02*
D03*
X326500Y589000D02*
D03*
X316500D02*
D03*
X326500Y599000D02*
D03*
D21*
X678500Y402500D02*
D03*
X316500Y599000D02*
D03*
D22*
X588500Y414500D02*
D03*
Y404500D02*
D03*
Y394500D02*
D03*
Y384500D02*
D03*
Y374500D02*
D03*
X538500D02*
D03*
Y384500D02*
D03*
Y394500D02*
D03*
Y404500D02*
D03*
Y414500D02*
D03*
X459000Y615500D02*
D03*
Y605500D02*
D03*
Y595500D02*
D03*
Y585500D02*
D03*
Y575500D02*
D03*
X409000D02*
D03*
Y585500D02*
D03*
Y595500D02*
D03*
Y605500D02*
D03*
Y615500D02*
D03*
X459000Y548500D02*
D03*
Y538500D02*
D03*
Y528500D02*
D03*
Y518500D02*
D03*
Y508500D02*
D03*
X409000D02*
D03*
Y518500D02*
D03*
Y528500D02*
D03*
Y538500D02*
D03*
Y548500D02*
D03*
X459000Y479000D02*
D03*
Y469000D02*
D03*
Y459000D02*
D03*
Y449000D02*
D03*
Y439000D02*
D03*
X409000D02*
D03*
Y449000D02*
D03*
Y459000D02*
D03*
Y469000D02*
D03*
Y479000D02*
D03*
X459000Y414500D02*
D03*
Y404500D02*
D03*
Y394500D02*
D03*
Y384500D02*
D03*
Y374500D02*
D03*
X409000D02*
D03*
Y384500D02*
D03*
Y394500D02*
D03*
Y404500D02*
D03*
Y414500D02*
D03*
X588500Y615500D02*
D03*
Y605500D02*
D03*
Y595500D02*
D03*
Y585500D02*
D03*
Y575500D02*
D03*
X538500D02*
D03*
Y585500D02*
D03*
Y595500D02*
D03*
Y605500D02*
D03*
Y615500D02*
D03*
X588500Y548500D02*
D03*
Y538500D02*
D03*
Y528500D02*
D03*
Y518500D02*
D03*
Y508500D02*
D03*
X538500D02*
D03*
Y518500D02*
D03*
Y528500D02*
D03*
Y538500D02*
D03*
Y548500D02*
D03*
X588500Y479000D02*
D03*
Y469000D02*
D03*
Y459000D02*
D03*
Y449000D02*
D03*
Y439000D02*
D03*
X538500D02*
D03*
Y449000D02*
D03*
Y459000D02*
D03*
Y469000D02*
D03*
Y479000D02*
D03*
D23*
X558500Y660000D02*
D03*
X566500Y661000D02*
D03*
X574500Y662500D02*
D03*
X582000Y661000D02*
D03*
X598000Y664000D02*
D03*
X573000Y675000D02*
D03*
X589500Y667000D02*
D03*
X605000Y668000D02*
D03*
X391000Y466500D02*
D03*
X368000Y475000D02*
D03*
X387000Y463500D02*
D03*
X372500Y474000D02*
D03*
X365500Y471000D02*
D03*
X392500Y449500D02*
D03*
X371000Y468500D02*
D03*
X390000Y445500D02*
D03*
Y439500D02*
D03*
X365500Y464000D02*
D03*
X388500Y434500D02*
D03*
X371000Y463000D02*
D03*
X371500Y459000D02*
D03*
X387500Y428000D02*
D03*
X383000Y427000D02*
D03*
X365500Y457000D02*
D03*
D24*
X443000Y534000D02*
D03*
X370000Y438500D02*
D03*
X367000Y450500D02*
D03*
X365500Y443000D02*
D03*
X346000Y450500D02*
D03*
X342500Y485500D02*
D03*
X365500Y479500D02*
D03*
X556000Y625000D02*
D03*
X321000Y625677D02*
D03*
X343500Y432000D02*
D03*
X344500Y439000D02*
D03*
X370000Y486500D02*
D03*
X368000Y495000D02*
D03*
X339000Y584000D02*
D03*
X356500Y627000D02*
D03*
X345500Y586000D02*
D03*
X358500Y633500D02*
D03*
X351500Y587000D02*
D03*
X365000Y634500D02*
D03*
X357500Y587000D02*
D03*
X371500Y635500D02*
D03*
X364000Y587500D02*
D03*
X392000Y632500D02*
D03*
X370500Y587000D02*
D03*
X381500Y631000D02*
D03*
X348000Y506000D02*
D03*
X348500Y489000D02*
D03*
X459000Y343000D02*
D03*
X378500Y319000D02*
D03*
X427500Y321500D02*
D03*
X349500Y325500D02*
D03*
X419000Y344000D02*
D03*
X411500Y325000D02*
D03*
X341000Y363000D02*
D03*
X373500Y392000D02*
D03*
X390000Y555500D02*
D03*
X389500Y564500D02*
D03*
X385500Y591500D02*
D03*
X344000Y619000D02*
D03*
M02*
