G04 Layer_Physical_Order=2*
G04 Layer_Color=16711680*
%FSLAX25Y25*%
%MOIN*%
G70*
G01*
G75*
%ADD14C,0.05000*%
%ADD15C,0.00800*%
%ADD16C,0.01000*%
%ADD17C,0.02000*%
%ADD18C,0.00600*%
%ADD19C,0.00050*%
%ADD20C,0.05905*%
%ADD21R,0.05905X0.05905*%
%ADD22O,0.08000X0.07000*%
%ADD23C,0.03400*%
%ADD24C,0.05000*%
D14*
X531000Y558000D02*
X624000D01*
X505500Y532500D02*
X531000Y558000D01*
X624000D02*
X659500Y522500D01*
X678500Y482500D02*
X688500D01*
X662000D02*
X678500D01*
X604000Y424500D02*
X662000Y482500D01*
X494500Y424500D02*
X604000D01*
X678500Y492500D02*
X688500D01*
X662000D02*
X678500D01*
X600000Y430500D02*
X662000Y492500D01*
X678500Y502500D02*
X688500D01*
X650420D02*
X678500D01*
X638434Y490515D02*
X650420Y502500D01*
X490515Y490515D02*
X638434D01*
X678500Y512500D02*
X688500D01*
X652500D02*
X678500D01*
X636515Y496515D02*
X652500Y512500D01*
X488029Y496515D02*
X636515D01*
X678500Y522500D02*
X688500D01*
X659500D02*
X678500D01*
Y532500D02*
X688500D01*
X658500D02*
X678500D01*
X627000Y564000D02*
X658500Y532500D01*
X528515Y564000D02*
X627000D01*
X618000Y645000D02*
X658500Y604500D01*
Y566000D02*
Y604500D01*
Y566000D02*
X672000Y552500D01*
X678500D01*
X688500D01*
X678500Y542500D02*
X688500D01*
X668500D02*
X678500D01*
X651500Y559500D02*
X668500Y542500D01*
X651500Y559500D02*
Y603015D01*
X615515Y639000D02*
X651500Y603015D01*
X514029Y645000D02*
X618000D01*
X516515Y639000D02*
X615515D01*
X473015Y595500D02*
X516515Y639000D01*
X459000Y595500D02*
X473015D01*
X474529Y605500D02*
X514029Y645000D01*
X459000Y605500D02*
X474529D01*
X556000Y627000D02*
X568015D01*
X521485D02*
X556000D01*
X443000Y534000D02*
Y567000D01*
X451500Y575500D01*
X437000Y518500D02*
Y569500D01*
Y518500D02*
X459000D01*
X437000Y569500D02*
X453000Y585500D01*
X451500Y575500D02*
X459000D01*
X453000Y585500D02*
X459000D01*
X469985Y575500D02*
X521485Y627000D01*
X459000Y575500D02*
X469985D01*
X568015Y627000D02*
X573000Y622015D01*
Y587515D02*
Y622015D01*
Y587515D02*
X585015Y575500D01*
X588500D01*
X579000Y590000D02*
Y624500D01*
X570500Y633000D02*
X579000Y624500D01*
X583500Y585500D02*
X588500D01*
X579000Y590000D02*
X583500Y585500D01*
X519000Y633000D02*
X570500D01*
X471500Y585500D02*
X519000Y633000D01*
X459000Y585500D02*
X471500D01*
X437000Y449000D02*
Y518000D01*
Y395500D02*
Y449000D01*
X459000D01*
X437000Y395500D02*
X448000Y384500D01*
X459000D01*
X464500Y394500D02*
X494500Y424500D01*
X459000Y394500D02*
X464500D01*
X459000Y404500D02*
X465000D01*
X491000Y430500D01*
X600000D01*
X474000Y482485D02*
X488029Y496515D01*
X474000Y472500D02*
Y482485D01*
X480000Y480000D02*
X490515Y490515D01*
X480000Y470015D02*
Y480000D01*
X472985Y463000D02*
X480000Y470015D01*
X463400Y463000D02*
X472985D01*
X459400Y459000D02*
X463400Y463000D01*
X459000Y459000D02*
X459400D01*
X459000Y469000D02*
X470500D01*
X474000Y472500D01*
X503015Y538500D02*
X528515Y564000D01*
X459000Y538500D02*
X503015D01*
X459000Y528500D02*
X462000Y531500D01*
X463400D01*
Y532500D01*
X505500D01*
D15*
X316500Y499000D02*
X320500D01*
X316500Y479000D02*
X320910D01*
X346000Y449500D02*
X360020D01*
X316500Y489000D02*
X320910D01*
X326500Y495753D02*
X329297D01*
X557000Y661500D02*
X558500Y660000D01*
X566500Y661000D02*
Y661500D01*
X565000Y663000D02*
X566500Y661500D01*
X574500Y662500D02*
Y663000D01*
X573100Y664400D02*
X574500Y663000D01*
X513799Y664400D02*
X573100D01*
X577200Y665800D02*
X582000Y661000D01*
X597500Y663500D02*
X598000Y664000D01*
X583500Y663500D02*
X597500D01*
X579800Y667200D02*
X583500Y663500D01*
X512640Y667200D02*
X579800D01*
X572500Y675500D02*
X573000Y675000D01*
X593400Y679100D02*
X604500Y668000D01*
X535900Y671400D02*
X543600Y679100D01*
X574300Y677700D02*
X575000Y677000D01*
X536480Y670000D02*
X544180Y677700D01*
X574300D01*
X543600Y679100D02*
X593400D01*
X544000Y675500D02*
X572500D01*
X537100Y668600D02*
X544000Y675500D01*
X511480Y670000D02*
X536480D01*
X589500Y667000D02*
X590000Y667500D01*
Y670500D01*
X583500Y677000D02*
X590000Y670500D01*
X575000Y677000D02*
X583500D01*
X604500Y668000D02*
X605000D01*
X510900Y671400D02*
X535900D01*
X387500Y419500D02*
X419501D01*
X394500Y421000D02*
X418879D01*
X395100Y422400D02*
X418299D01*
X395680Y423800D02*
X417720D01*
X391000Y461480D02*
Y466500D01*
X399900Y433600D02*
X404100Y429400D01*
X392900Y455100D02*
X399900Y448100D01*
X392900Y455100D02*
Y459580D01*
X391000Y461480D02*
X392900Y459580D01*
X399900Y433600D02*
Y448100D01*
X331853Y497157D02*
X336170Y492840D01*
X328717Y504353D02*
X331853Y501217D01*
X336170Y486799D02*
X339000Y483969D01*
X336170Y486799D02*
Y492840D01*
X326500Y504353D02*
Y509000D01*
X331853Y497157D02*
Y501217D01*
X326500Y504353D02*
X328717D01*
X349500Y478500D02*
X353500Y474500D01*
X366000D01*
X339000Y480500D02*
X341000Y478500D01*
X339000Y480500D02*
Y483969D01*
X341000Y478500D02*
X349500D01*
X387000Y463500D02*
X391500Y459000D01*
X395200Y449800D02*
Y450618D01*
X391500Y454318D02*
X395200Y450618D01*
X391500Y454318D02*
Y459000D01*
X398500Y431180D02*
X401680Y428000D01*
X397500Y446500D02*
Y447500D01*
X395200Y449800D02*
X397500Y447500D01*
X398500Y431180D02*
Y445500D01*
X397500Y446500D02*
X398500Y445500D01*
X333370Y485640D02*
X336053Y482957D01*
X329297Y495753D02*
X333370Y491680D01*
X336053Y479347D02*
Y482957D01*
X326500Y495753D02*
Y499000D01*
X333370Y485640D02*
Y491680D01*
X372318Y474000D02*
X372500D01*
X366418Y468100D02*
X372318Y474000D01*
X363802Y468100D02*
X366418D01*
X345899Y469500D02*
X362402D01*
X336053Y479347D02*
X345899Y469500D01*
X362402D02*
X363802Y468100D01*
X363000Y472000D02*
X364000Y471000D01*
X356000Y472000D02*
X363000D01*
X364000Y471000D02*
X365500D01*
X396500Y431200D02*
X401100Y426600D01*
X396500Y431200D02*
Y445500D01*
X392500Y449500D02*
X396500Y445500D01*
X330453Y496577D02*
X334770Y492260D01*
X328137Y502953D02*
X330453Y500637D01*
X334770Y486220D02*
X337453Y483537D01*
X334770Y486220D02*
Y492260D01*
X316500Y509000D02*
X322547Y502953D01*
X330453Y496577D02*
Y500637D01*
X322547Y502953D02*
X328137D01*
X348920Y477100D02*
X352920Y473100D01*
X340420Y477100D02*
X348920D01*
X354900Y473100D02*
X356000Y472000D01*
X352920Y473100D02*
X354900D01*
X337453Y480047D02*
X338500Y479000D01*
X337453Y480047D02*
Y483537D01*
X338520Y479000D02*
X340420Y477100D01*
X338500Y479000D02*
X338520D01*
X367200Y466700D02*
X369375Y468875D01*
X394000Y427460D02*
X396260Y425200D01*
X390000Y445500D02*
X394000Y441500D01*
Y427460D02*
Y441500D01*
X328717Y494353D02*
X331970Y491100D01*
X325147Y494353D02*
X328717D01*
X331970Y485060D02*
X334653Y482377D01*
X331970Y485060D02*
Y491100D01*
X320500Y499000D02*
X325147Y494353D01*
X353990Y467000D02*
X360000D01*
X351189Y464200D02*
X353990Y467000D01*
X360300Y466700D02*
X367200D01*
X360000Y467000D02*
X360300Y466700D01*
X334653Y478767D02*
X349220Y464200D01*
X334653Y478767D02*
Y482377D01*
X349220Y464200D02*
X351189D01*
X391600Y427880D02*
X395680Y423800D01*
X390000Y436818D02*
Y439500D01*
X391600Y427880D02*
Y435218D01*
X390000Y436818D02*
X391600Y435218D01*
X330570Y484480D02*
X333253Y481797D01*
Y478187D02*
Y481797D01*
X328137Y492953D02*
X330570Y490520D01*
X324863Y492953D02*
X328137D01*
X320910Y489000D02*
X324863Y492953D01*
X330570Y484480D02*
Y490520D01*
X365000Y465000D02*
X365500Y464500D01*
Y464000D02*
Y464500D01*
X353969Y465000D02*
X365000D01*
X333253Y478187D02*
X348640Y462800D01*
X351769D02*
X353969Y465000D01*
X348640Y462800D02*
X351769D01*
X390200Y427300D02*
X395100Y422400D01*
X388500Y430818D02*
Y434500D01*
X390200Y427300D02*
Y429118D01*
X388500Y430818D02*
X390200Y429118D01*
X367800Y461800D02*
X369500Y463500D01*
X328717Y484353D02*
X331853Y481217D01*
X367118Y461800D02*
X367800D01*
X353749Y462800D02*
X362882D01*
X326500Y484353D02*
Y489000D01*
X331853Y477607D02*
Y481217D01*
X326500Y484353D02*
X328717D01*
X366618Y461300D02*
X367118Y461800D01*
X364382Y461300D02*
X366618D01*
X362882Y462800D02*
X364382Y461300D01*
X331853Y477607D02*
X348060Y461400D01*
X352349D02*
X353749Y462800D01*
X348060Y461400D02*
X352349D01*
X369600Y460400D02*
X371000Y459000D01*
X371500D01*
X367698Y460400D02*
X369600D01*
X387500Y428000D02*
X394500Y421000D01*
X330453Y477363D02*
Y480637D01*
X328137Y482953D02*
X330453Y480637D01*
X330285Y477195D02*
Y477195D01*
X330453Y477363D01*
X324863Y482953D02*
X328137D01*
X320910Y479000D02*
X324863Y482953D01*
X362302Y461400D02*
X363802Y459900D01*
X354329Y461400D02*
X362302D01*
X367198Y459900D02*
X367698Y460400D01*
X363802Y459900D02*
X367198D01*
X352929Y460000D02*
X354329Y461400D01*
X330285Y477195D02*
X347480Y460000D01*
X352929D01*
X383000Y424000D02*
Y427000D01*
Y424000D02*
X387500Y419500D01*
X364722Y457000D02*
X365500D01*
X346900Y458600D02*
X363122D01*
X326500Y479000D02*
X346900Y458600D01*
X363122D02*
X364722Y457000D01*
X477400Y637900D02*
X510900Y671400D01*
X477980Y636500D02*
X511480Y670000D01*
X512060Y668600D02*
X537100D01*
X478560Y635100D02*
X512060Y668600D01*
X479140Y633700D02*
X512640Y667200D01*
X513220Y665800D02*
X577200D01*
X479720Y632300D02*
X513220Y665800D01*
X480300Y630900D02*
X513799Y664400D01*
X514379Y663000D02*
X565000D01*
X480879Y629500D02*
X514379Y663000D01*
X515001Y661500D02*
X557000D01*
X481501Y628000D02*
X515001Y661500D01*
X448500Y628000D02*
X481501D01*
X446139Y633700D02*
X479140D01*
X444979Y636500D02*
X477980D01*
X444399Y637900D02*
X477400D01*
X420000Y613501D02*
X444399Y637900D01*
X421400Y612921D02*
X444979Y636500D01*
X445559Y635100D02*
X478560D01*
X422800Y612341D02*
X445559Y635100D01*
X424200Y611761D02*
X446139Y633700D01*
X446719Y632300D02*
X479720D01*
X425600Y611181D02*
X446719Y632300D01*
X447299Y630900D02*
X480300D01*
X427000Y610601D02*
X447299Y630900D01*
X447879Y629500D02*
X480879D01*
X428400Y610021D02*
X447879Y629500D01*
X429900Y609400D02*
X448500Y628000D01*
X420000Y434000D02*
Y613501D01*
X421400Y433420D02*
Y612921D01*
X422800Y432840D02*
Y612341D01*
X424200Y432260D02*
Y611761D01*
X427000Y431101D02*
Y610601D01*
X428400Y430521D02*
Y610021D01*
X429900Y429899D02*
Y609400D01*
X425600Y431680D02*
Y611181D01*
X419501Y419500D02*
X429900Y429899D01*
X418879Y421000D02*
X428400Y430521D01*
X418299Y422400D02*
X427000Y431101D01*
X417720Y423800D02*
X425600Y431680D01*
X417140Y425200D02*
X424200Y432260D01*
X416560Y426600D02*
X422800Y432840D01*
X415980Y428000D02*
X421400Y433420D01*
X415400Y429400D02*
X420000Y434000D01*
X396260Y425200D02*
X417140D01*
X401100Y426600D02*
X416560D01*
X401680Y428000D02*
X415980D01*
X404100Y429400D02*
X415400D01*
X364500Y432000D02*
X370000Y437500D01*
X343500Y432000D02*
X364500D01*
X348500Y443000D02*
X365500D01*
X344500Y439000D02*
X348500Y443000D01*
X341000Y454500D02*
X357000D01*
X326500Y469000D02*
X341000Y454500D01*
X341915Y455900D02*
X362782D01*
X330453Y467363D02*
X341915Y455900D01*
X330453Y467363D02*
Y470637D01*
X328137Y472953D02*
X330453Y470637D01*
X370000Y437500D02*
Y438500D01*
X377000Y455550D02*
Y479500D01*
X368450Y447000D02*
X377000Y455550D01*
X375500Y458500D02*
Y478500D01*
X372900Y455900D02*
X375500Y458500D01*
X368550Y455900D02*
X372900D01*
X368450Y456000D02*
X368550Y455900D01*
X368318Y456000D02*
X368450D01*
X366618Y454300D02*
X368318Y456000D01*
X361000Y450500D02*
X367000D01*
X364382Y454300D02*
X366618D01*
X362782Y455900D02*
X364382Y454300D01*
X362520Y447000D02*
X368450D01*
X360020Y449500D02*
X362520Y447000D01*
X346000Y449500D02*
Y450500D01*
X374500Y479500D02*
X375500Y478500D01*
X370000Y486500D02*
X377000Y479500D01*
X357000Y454500D02*
X361000Y450500D01*
X342500Y485500D02*
X343500D01*
X344500Y484500D01*
X365500Y479500D02*
X374500D01*
X344500Y484500D02*
X357500D01*
X368000Y495000D01*
X324863Y472953D02*
X328137D01*
X319910Y468000D02*
X324863Y472953D01*
X317500Y468000D02*
X319910D01*
X316500Y469000D02*
X317500Y468000D01*
X339000Y584000D02*
Y584500D01*
X356500Y602000D01*
Y627000D01*
X345500Y586000D02*
Y586500D01*
X364000Y605000D01*
Y628000D01*
X358500Y633500D02*
X364000Y628000D01*
X351500Y587000D02*
Y588000D01*
X365500Y602000D01*
Y634000D01*
X365000Y634500D02*
X365500Y634000D01*
X357500Y587000D02*
X358550D01*
X367700Y596150D01*
Y622180D01*
X371500Y625980D01*
Y635500D01*
X364000Y587500D02*
X369100Y592600D01*
Y621600D01*
X378000Y630500D01*
Y632450D01*
X380050Y634500D01*
X382950D01*
X384950Y632500D01*
X392000D01*
X370500Y587000D02*
Y620000D01*
X381500Y631000D01*
D16*
X316500Y559000D02*
X320953Y563453D01*
X326500Y539000D02*
X328000Y540500D01*
X326500Y579000D02*
X373000D01*
X316500Y539000D02*
X321000Y543500D01*
X316500Y569000D02*
X322047Y574547D01*
X326500Y559000D02*
X375672D01*
X326500Y529000D02*
X338000D01*
X326500Y569000D02*
X331000Y573500D01*
X316500Y579000D02*
X322047Y584547D01*
X387500Y404500D02*
X409000D01*
X373600Y418400D02*
X387500Y404500D01*
X373600Y418400D02*
Y439991D01*
X371000Y442591D02*
X373600Y439991D01*
X371000Y442591D02*
Y447429D01*
X378500Y454929D01*
Y480121D01*
X373600Y485021D02*
X378500Y480121D01*
X371000Y490591D02*
X373600Y487991D01*
X371000Y490591D02*
Y492909D01*
X366172Y540500D02*
X371600Y535072D01*
Y493509D02*
Y535072D01*
X371000Y492909D02*
X371600Y493509D01*
X373600Y485021D02*
Y487991D01*
X338163Y525600D02*
X346000Y517763D01*
Y509500D02*
Y517763D01*
Y509500D02*
X348000Y507500D01*
X344400Y504509D02*
Y516600D01*
X337000Y524000D02*
X344400Y516600D01*
X321500Y524000D02*
X337000D01*
X338000Y525600D02*
X338163D01*
X338000D02*
Y529000D01*
X344400Y504509D02*
X348900Y500009D01*
Y489400D02*
Y500009D01*
X348000Y506000D02*
Y507500D01*
X348500Y489000D02*
X348900Y489400D01*
X398000Y556500D02*
Y594500D01*
X393000Y551500D02*
X398000Y556500D01*
X386000Y551500D02*
X393000D01*
X316500Y529000D02*
X321500Y524000D01*
X403000Y469000D02*
X409000D01*
X328000Y540500D02*
X366172D01*
X321000Y543500D02*
X366000D01*
X381500Y528000D01*
Y490500D02*
Y528000D01*
Y490500D02*
X403000Y469000D01*
X385379Y549293D02*
X392207D01*
X375672Y559000D02*
X385379Y549293D01*
X392207D02*
X402000Y539500D01*
X408000D01*
X409000Y538500D01*
X374047Y563453D02*
X386000Y551500D01*
X320953Y563453D02*
X374047D01*
X398000Y594500D02*
X409000Y605500D01*
X331000Y573500D02*
X372000D01*
X390000Y555500D01*
X322047Y574547D02*
X328344D01*
X329297Y575500D01*
X378500D01*
X389500Y564500D01*
X373000Y579000D02*
X385500Y591500D01*
X322047Y584547D02*
X333547D01*
X338500Y589500D01*
Y613500D01*
X344000Y619000D01*
D17*
X326500Y459000D02*
X332500D01*
X356000Y392000D02*
X373500D01*
X332500Y459000D02*
X339500Y452000D01*
Y433798D02*
Y452000D01*
X556000Y625000D02*
Y626000D01*
X556500Y626500D01*
X556000Y627000D02*
X556500Y626500D01*
X307500Y450000D02*
Y612177D01*
X321000Y625677D01*
X339400Y408600D02*
X356000Y392000D01*
X339400Y408600D02*
Y433698D01*
X339500Y433798D01*
X459000Y343000D02*
Y374500D01*
X307500Y450000D02*
X316500Y459000D01*
X307500Y373500D02*
Y450000D01*
Y373500D02*
X362000Y319000D01*
X378500D01*
X427500Y319500D02*
Y321500D01*
X422000Y314000D02*
X427500Y319500D01*
X361000Y314000D02*
X422000D01*
X349500Y325500D02*
X361000Y314000D01*
D18*
X379500Y324500D02*
X411500D01*
X366505Y344000D02*
X419000D01*
X328000Y382505D02*
X366505Y344000D01*
X328000Y382505D02*
Y407500D01*
X326500Y409000D02*
X328000Y407500D01*
X411500Y324500D02*
Y325000D01*
X341000Y363000D02*
X379500Y324500D01*
D19*
X696850Y686850D02*
G03*
X686850Y696850I-10000J0D01*
G01*
Y303150D02*
G03*
X696850Y313150I0J10000D01*
G01*
X303150D02*
G03*
X313150Y303150I10000J0D01*
G01*
Y696850D02*
G03*
X303150Y686850I0J-10000D01*
G01*
X329646Y676850D02*
G03*
X329646Y676850I-6496J0D01*
G01*
X683347Y323150D02*
G03*
X683347Y323150I-6496J0D01*
G01*
X329646D02*
G03*
X329646Y323150I-6496J0D01*
G01*
X683347Y676850D02*
G03*
X683347Y676850I-6496J0D01*
G01*
X313150Y303150D02*
X686850D01*
X303150Y313150D02*
Y686850D01*
X313150Y696850D02*
X686850D01*
D20*
X688500Y592500D02*
D03*
X678500D02*
D03*
X688500Y582500D02*
D03*
X678500D02*
D03*
X688500Y572500D02*
D03*
X678500D02*
D03*
X688500Y562500D02*
D03*
X678500D02*
D03*
X688500Y552500D02*
D03*
X678500D02*
D03*
X688500Y542500D02*
D03*
X678500D02*
D03*
X688500Y532500D02*
D03*
X678500D02*
D03*
X688500Y522500D02*
D03*
X678500D02*
D03*
X688500Y512500D02*
D03*
X678500D02*
D03*
X688500Y502500D02*
D03*
X678500D02*
D03*
X688500Y492500D02*
D03*
X678500D02*
D03*
X688500Y482500D02*
D03*
X678500D02*
D03*
X688500Y472500D02*
D03*
X678500D02*
D03*
X688500Y462500D02*
D03*
X678500D02*
D03*
X688500Y452500D02*
D03*
X678500D02*
D03*
X688500Y442500D02*
D03*
X678500D02*
D03*
X688500Y432500D02*
D03*
X678500D02*
D03*
X688500Y422500D02*
D03*
X678500D02*
D03*
X688500Y412500D02*
D03*
X678500D02*
D03*
X688500Y402500D02*
D03*
X326500Y409000D02*
D03*
X316500D02*
D03*
X326500Y419000D02*
D03*
X316500D02*
D03*
X326500Y429000D02*
D03*
X316500D02*
D03*
X326500Y439000D02*
D03*
X316500D02*
D03*
X326500Y449000D02*
D03*
X316500D02*
D03*
X326500Y459000D02*
D03*
X316500D02*
D03*
X326500Y469000D02*
D03*
X316500D02*
D03*
X326500Y479000D02*
D03*
X316500D02*
D03*
X326500Y489000D02*
D03*
X316500D02*
D03*
X326500Y499000D02*
D03*
X316500D02*
D03*
X326500Y509000D02*
D03*
X316500D02*
D03*
X326500Y519000D02*
D03*
X316500D02*
D03*
X326500Y529000D02*
D03*
X316500D02*
D03*
X326500Y539000D02*
D03*
X316500D02*
D03*
X326500Y549000D02*
D03*
X316500D02*
D03*
X326500Y559000D02*
D03*
X316500D02*
D03*
X326500Y569000D02*
D03*
X316500D02*
D03*
X326500Y579000D02*
D03*
X316500D02*
D03*
X326500Y589000D02*
D03*
X316500D02*
D03*
X326500Y599000D02*
D03*
D21*
X678500Y402500D02*
D03*
X316500Y599000D02*
D03*
D22*
X588500Y414500D02*
D03*
Y404500D02*
D03*
Y394500D02*
D03*
Y384500D02*
D03*
Y374500D02*
D03*
X538500D02*
D03*
Y384500D02*
D03*
Y394500D02*
D03*
Y404500D02*
D03*
Y414500D02*
D03*
X459000Y615500D02*
D03*
Y605500D02*
D03*
Y595500D02*
D03*
Y585500D02*
D03*
Y575500D02*
D03*
X409000D02*
D03*
Y585500D02*
D03*
Y595500D02*
D03*
Y605500D02*
D03*
Y615500D02*
D03*
X459000Y548500D02*
D03*
Y538500D02*
D03*
Y528500D02*
D03*
Y518500D02*
D03*
Y508500D02*
D03*
X409000D02*
D03*
Y518500D02*
D03*
Y528500D02*
D03*
Y538500D02*
D03*
Y548500D02*
D03*
X459000Y479000D02*
D03*
Y469000D02*
D03*
Y459000D02*
D03*
Y449000D02*
D03*
Y439000D02*
D03*
X409000D02*
D03*
Y449000D02*
D03*
Y459000D02*
D03*
Y469000D02*
D03*
Y479000D02*
D03*
X459000Y414500D02*
D03*
Y404500D02*
D03*
Y394500D02*
D03*
Y384500D02*
D03*
Y374500D02*
D03*
X409000D02*
D03*
Y384500D02*
D03*
Y394500D02*
D03*
Y404500D02*
D03*
Y414500D02*
D03*
X588500Y615500D02*
D03*
Y605500D02*
D03*
Y595500D02*
D03*
Y585500D02*
D03*
Y575500D02*
D03*
X538500D02*
D03*
Y585500D02*
D03*
Y595500D02*
D03*
Y605500D02*
D03*
Y615500D02*
D03*
X588500Y548500D02*
D03*
Y538500D02*
D03*
Y528500D02*
D03*
Y518500D02*
D03*
Y508500D02*
D03*
X538500D02*
D03*
Y518500D02*
D03*
Y528500D02*
D03*
Y538500D02*
D03*
Y548500D02*
D03*
X588500Y479000D02*
D03*
Y469000D02*
D03*
Y459000D02*
D03*
Y449000D02*
D03*
Y439000D02*
D03*
X538500D02*
D03*
Y449000D02*
D03*
Y459000D02*
D03*
Y469000D02*
D03*
Y479000D02*
D03*
D23*
X558500Y660000D02*
D03*
X566500Y661000D02*
D03*
X574500Y662500D02*
D03*
X582000Y661000D02*
D03*
X598000Y664000D02*
D03*
X573000Y675000D02*
D03*
X589500Y667000D02*
D03*
X605000Y668000D02*
D03*
X391000Y466500D02*
D03*
X368000Y475000D02*
D03*
X387000Y463500D02*
D03*
X372500Y474000D02*
D03*
X365500Y471000D02*
D03*
X392500Y449500D02*
D03*
X371000Y468500D02*
D03*
X390000Y445500D02*
D03*
Y439500D02*
D03*
X365500Y464000D02*
D03*
X388500Y434500D02*
D03*
X371000Y463000D02*
D03*
X371500Y459000D02*
D03*
X387500Y428000D02*
D03*
X383000Y427000D02*
D03*
X365500Y457000D02*
D03*
D24*
X443000Y534000D02*
D03*
X370000Y438500D02*
D03*
X367000Y450500D02*
D03*
X365500Y443000D02*
D03*
X346000Y450500D02*
D03*
X342500Y485500D02*
D03*
X365500Y479500D02*
D03*
X556000Y625000D02*
D03*
X321000Y625677D02*
D03*
X343500Y432000D02*
D03*
X344500Y439000D02*
D03*
X370000Y486500D02*
D03*
X368000Y495000D02*
D03*
X339000Y584000D02*
D03*
X356500Y627000D02*
D03*
X345500Y586000D02*
D03*
X358500Y633500D02*
D03*
X351500Y587000D02*
D03*
X365000Y634500D02*
D03*
X357500Y587000D02*
D03*
X371500Y635500D02*
D03*
X364000Y587500D02*
D03*
X392000Y632500D02*
D03*
X370500Y587000D02*
D03*
X381500Y631000D02*
D03*
X348000Y506000D02*
D03*
X348500Y489000D02*
D03*
X459000Y343000D02*
D03*
X378500Y319000D02*
D03*
X427500Y321500D02*
D03*
X349500Y325500D02*
D03*
X419000Y344000D02*
D03*
X411500Y325000D02*
D03*
X341000Y363000D02*
D03*
X373500Y392000D02*
D03*
X390000Y555500D02*
D03*
X389500Y564500D02*
D03*
X385500Y591500D02*
D03*
X344000Y619000D02*
D03*
M02*
