M48
;Layer_Color=9474304
;FILE_FORMAT=2:5
INCH,LZ
;TYPE=PLATED
T1F00S00C0.01600
T2F00S00C0.03543
T3F00S00C0.11000
%
T01
X0383Y0322
X0338192Y0373808
X0330692Y0381308
X0327581Y0384419
X0324469Y038753
X0325Y0462
X0595Y0431
X0605928
X0615442
X0623284
X0629224
X0635241
X0639641
X0646441
X0634Y0554
Y0562
X0635Y059
X0629Y0593
X0596Y0619
X0586Y0611
X056Y061
X0563Y0619
X0382Y059
X0375Y0586
X0376Y0571
X0366Y0578
X0323Y0572
X0322Y0551126
X0314Y0528
X0346Y0515
X0325Y0474
X0522Y0677
X0531Y0681
T02
X03455Y0331
Y0341
Y0351
X03555
X03655
X03755
X03855
X03955
X04055
X04155
X04255
X04355
X04455
X04555
X04655
Y0341
X04555
X04455
X04355
X04255
X04155
X04055
X03955
X03855
X03755
X03655
X03555
Y0331
X03655
X03755
X03855
X03955
X04055
X04155
X04255
X04355
X04455
X04555
X04655
X04755
Y0341
Y0351
X04855
X04955
X05055
X05155
X05255
X05355
X05455
X05555
X05655
X05755
X05855
X05955
X06055
X06155
Y0341
Y0331
X06055
Y0341
X05955
Y0331
X05855
Y0341
X05755
Y0331
X05655
Y0341
X05555
Y0331
X05455
X05355
X05255
X05155
X05055
X04955
X04855
Y0341
X04955
X05055
X05155
X05255
X05355
X05455
X06255
Y0351
X06355
X06455
X06555
Y0341
Y0331
X06455
Y0341
X06355
Y0331
X06255
X0596Y0558
Y0568
X0586
Y0558
X0576
Y0568
X0566
Y0558
X0556
Y0568
X0546
Y0558
X0536
Y0568
X0526
Y0558
X0516
Y0568
X0506
Y0558
X0496
Y0568
X0486
Y0558
X0476
Y0568
X0466
Y0558
X0456
Y0568
X0446
Y0558
X0436
Y0568
X0426
Y0558
X0416
Y0568
X0406
Y0558
X04075Y06545
X04175
X04275
X04375
X04475
X04575
X04675
Y06645
X04575
X04475
X04375
X04275
X04175
X04075
X04775
X04875
X04975
X05075
X05175
X05275
X05375
X05475
X05575
X05675
X05775
X05875
X05975
Y06545
X05875
X05775
X05675
X05575
X05475
X05375
X05275
X05175
X05075
X04975
X04875
X04775
T03
X03255Y0321
X06755
M30
